<svg xmlns="http://www.w3.org/2000/svg" width="1024" height="683"><text y="15" style="font-family:Times New Roman; font-size:15px; fill:red;" >Evaluation Only. Created with Aspose.SVG. Copyright 2018-2024 Aspose Pty Ltd.</text><style>.c0 { stroke: rgb(124, 122, 99); fill: rgb(124, 122, 99); }.c1 { stroke: rgb(223, 215, 216); fill: rgb(223, 215, 216); }.c2 { stroke: rgb(179, 175, 166); fill: rgb(179, 175, 166); }.c3 { stroke: rgb(254, 254, 254); fill: rgb(254, 254, 254); }</style><g fill="rgba(255, 255, 255, 0)" transform="scale(0.1)" stroke-width="20"><path d=" M7 2c49-10 189-2 248-2h9900c16 0 65-8 77 3 5 5 3 201 3 227v6310c0 82 7 192 0 270-1 6-1 11-7 13-17 9-140 2-168 2H110c-15 0-100 3-107-3-6-6-3-155-3-177V175C0 125-8 53 2 7Z" class="c3"/><path d=" M3295 2138c17-41 66-90 100-120 16-14 53-17 55-43 2-22-25-25-38-33-5-4-8-9-14-12s-15 4-21 3c-10-1-15-11-24-15-7-4-18-3-25-8-12-8 6-18 7-27 1-10-16-10-15-23 1-5 5-9 10-10 13-3 27 2 40-2 14-3 64-25 55-46-4-10-27 2-37-2-29-12-75-30-68-70 2-8 9-16 10-25 1-11-16-19-15-25 4-18 43-15 52-27 18-24-18-45-15-66l63-89c6-8 19 1 27-6 6-7-1-15 3-20 3-5 20-2 25-4 2 0 18-9 20-6 6 8-6 21 12 23 6 1 16-15 21-18 9-6 24-15 25-27 3-26-32-29-43-43-20-27 21-52 15-87-2-10-10-15-15-23-3-5-26-92-25-97 2-9 8-17 10-25 4-14 7-10 18-3 14 7 67 30 79 11 5-8-18-34-27-36-14-3-8 23-17 15-5-5 3-14 2-20-1-10-8-16-10-25-2-8 4-15 3-22l-6-17c-1-4 10-34 13-33 7 1 46 67 58 77 38 29 70-2 89 21 7 10-15 37-17 47s-11 37-10 45c1 14 11 24-3 37-8 6-16 2-24 10-2 2-3 10-6 8-4-3-5-8-9-12-14-14 2 4-15-8-7-5-9-16-15-22-8-8-20-10-28-21-5-7-7-17-13-24-6-5-16-10-24-13-19-8-22 7-18 23 2 11 13 20 18 30s-1 19 5 29c15 22 56 111 74 123l60 40c14 9 44-3 53 13 3 5-3 15 0 20 1 3 9 8 10 12 1 6-11 6-10 13 1 4 18 24 13 27-6 4-13-7-21-2-21 13-2 27-42 27 0 0-13 1-15-2-11-14 53-12 38-25-12-10-63-5-78-1-6 1-11 6-17 6-7 1-14-5-21-3-15 3-69 3-75 8-9 7-10 27-4 35 14 18 77 37 99 42 14 3 26-8 41-3 12 3 21 14 29 23 6 8 0 8-5 13-6 6-8 17-15 22-15 11-43 14-55 28-11 13 14 35 25 37 13 3 19-10 30-13 14-5 34 4 46-5 10-8 11-19 25-22 13-3 28 6 42 5 12-1 24-11 35-10 17 2 51 35 55-5 3-36-50-33-67-53-9-12 31-18 22-35-12-24-43-22-50-50-4-15 18 10 20 11 16 7 57 7 55-18-1-15-18-46-28-57-9-8-22-11-32-16-8-5-10-13-17-19-10-7-6 0-16-5-9-4 33-30 31-38-1-7-59-39-21-43 10-2 13 19 16 25 10 17 57 73 77 71 32-3 12-36 15-50 5-20 20-13 32-25 8-8 8-21 23-23 28-3 42 44 62 57 18 11 23-26 31-34 6-4 10-3 17-3 29 0 24 19 42 37 2 2 10 6 11 10 17 32-25 104 4 118 9 5 70-40 85-13 10 18 1 48 3 68 1 13 23 79 32 85 29 19 26-29 40-33 2-1 33 27 35 30 4 7 1 19 10 23 13 6 34-26 41-20 7 5-3 48 37 55 55 10 62-49 90-55 6-1 3 38 15 43 64 26 44-5 75-8 9-1 15 7 23 5 17-4 29-42 49-52 11-5 20 11 31 4 18-12 19-52 30-64 7-6 17-3 24-10s6-21 20-18c22 5 149 33 160 40 20 13 12 30 21 48 9 19 32 31 49 42 16 11 34 15 53 15 7 0 25-1 20 3-10 10-31 0-33 22-2 15 28 23 35 37 4 9-4 14-5 23-2 15 36 30 48 33 18 5 62 8 77-6 10-11 4-24 10-35 10-21 64-43 86-35 6 1-9 9-10 10-2 2-6 10-10 11-9 5-26 3-20 20 5 12 18 15 25 24 31 36 17 25 62 33 50 9 49-12 87-37 13-8 27-12 40-21 9-8 16-20 26-27 8-5 18-3 25-8 8-6 10-18 4-25-6-8-22 6-30 1-7-3-9-14-17-16-18-4-3 20-15 23-11 3-33-5-45-5-6 0-39 6-42 5-23-12 28-52 34-58 2-2 5-10 1-14-7-6-18-2-26-5-6-1-11-6-17-6-8-1-15 7-23 6-12-1-22 1-30 0-35-3-13-15-25-30-10-10-41-15-30-36 6-12 60-21 71-30 13-11-27-12-28-14-2-2 47-49 50-55 8-16-74-35-22-61 10-5 91 29 122 23 25-5 51-26 75-30 18-3 36-5 53-13 19-10 26-16 49-24 10-3 131 31 136-23 2-13-15-17-23-23-14-13-18-32-33-44-9-6-24-10-29-20-13-26 78-4 72-21-4-12-27-5-35-7-17-3-6-27-25-30-47-9-86 8-145-8-6-2-20 1-25-4-7-7 19-3 28-6 17-7 31-4 47-9 30-8 55-23 85-28 9-2 16-8 25-10 11-2 56-7 63-13 10-8-11-12-13-12-36-3-75 6-110 0-7-1-60-19-55-27 11-15 40-5 55-10l45-8c26-5 49-25 75-30 13-2 28 4 40-2 3-1 8-6 3-10l-18-6c8-9 30 9 40 8 23-2-1-17 2-18 14-5 38 20 50 1 16-26-50-8-47-33 1-9 12-9 15-17v-13c5-16 57-24 68-33 17-14-30-14-31-29-2-17 26-26 36-33 11-7 10-23 20-30 11-7 6 29 5 33-4 15-23 24-16 42 4 12 32 16 38 3 3-6-3-9-3-15-2-10 17-12 18-23 1-10-7-25-10-35-2-6-23-40-18-45 2-3 27 62 30 67 7 14 10 39 21 50 7 6 24 9 27 18 4 13-8 30-5 45 9 49 38 35 30 125-5 52-45 48-60 105-2 8-7 15-5 23 3 14 4 32 13 44 18 23 71 35 50 76-2 5-22-4-28-1-10 4-1 10-5 16-7 10-24-23-27-25-9-6-19 6-30 0-12-6-2-13-10-20-14-12-118-31-123-16-4 12 37 18 43 21 16 9 30 20 45 29 8 4 17 5 24 11 10 11 0 3 8 15 2 3 37 29 43 34 4 3 56 36 45 41-12 7-47-35-60-43-11-7-75-27-88-25-9 2-16 8-25 10-7 1-22-3-25 7-3 8 22 10 27 13s57 45 53 48c-4 5-27 1-20 15 8 16 31 25 40 40 4 7-12 10-10 20 2 11 6 25 13 34 6 7 61 47 67 46 25-2 90-94 118-113 32-21 73-30 104-53 9-8 16-20 26-27 13-8 5 2 15-8 15-15 25-34 42-49 18-15 44-20 63-33 22-15 22-6 34-13 11-8 23-19 38-22 48-9 118 4 170 0 21-2 44-6 65-10 9-2 16-8 25-10 32-6 115-16 145-10 12 2 20 12 32 15 5 1 15-2 20 0 18 9 29 35 46 47 6 3 18 0 19 1 0 1-7 15-4 20 5 8 17 8 22 15 12 16 41 92 60 120 5 8 15 13 20 20 13 20 19 45 33 64 10 12 28 14 37 26s-4 21-5 32c-1 8 14 56 18 62 22 28 55 34 84 53 16 11 33 42 41 48 5 4 11 0 15 4 11 11 18 25 30 35 12 9 28 13 37 26 13 20 26 43 47 57 19 13 30 30 46 47 7 6 24 9 27 18 5 17-26 16-35 15s-16-6-25-8c-10-3-20 0-30-2-9-2-16-8-25-10l-75-10c-11-2-94-30-102-35-15-10-18-23-38-25-24-2-56 2-63 30-6 22 25 77 28 95 2 10-1 20 2 30 4 17 15 33 18 50l10 65c5 25 30 65 38 92 6 18 5 40 4 58-1 9 6 17 8 25 5 29-2 61 0 90 1 9 6 16 5 25-1 5-5 10-5 15-1 16 13 28 10 45-2 9-8 16-10 25-4 21 8 36 10 55l-23 108c-20 35-36-8-44-13l-30-20c-24-16-59 3-85-12-31-17-53-72-85-88-9-4-24 6-30 12-26 26-18 63-25 86-7 24-26 84-28 107s4 48 0 70c-4 20-30 58-28 75 3 38-5 125-12 165-4 23-18 46-20 70-4 46 0 92 12 135 2 9 7 16 8 25 2 19-3 41 0 60 2 9 8 16 10 25v20c1 16 17 72 22 90 14 53 78 83 53 117-28 37-49-61-55-70s-15-8-22-15c-11-12-29-33-38-2-7 24-15 49-10 75 2 9 8 16 10 25 8 45-10 96 2 140 8 29 36 76 51 103 7 13 5 24 9 37 6 23 19 44 26 67 3 9 0 18 2 28 4 19 27 26 30 45l10 45c-2 21-18 38-8 75 6 23 19 44 26 67 5 15-1 32 2 48 4 20 18 39 20 60 4 45-27 87-38 130-9 33 10 51 8 75-1 12-9 22-10 35-1 16 3 34 0 50-6 32-28 60-35 92-2 8 4 15 5 23 2 12-6 22-5 33 1 10 6 17 5 27-2 24-16 47-20 70-5 30-3 156 0 190 2 24 22 33 20 60-2 22-40 25-48 55-6 19 5 28 8 45 3 18 3 102-2 118-9 33-55 46-58 82-2 20 17 41 20 60 2 12 0 27 0 40 0 73-26 90-30 135-2 24-4 56 0 80 4 20 15 32 8 53-4 14-16 18-23 29-15 22-24 49-40 70-7 9-52 34-53 38-14 35 22 72 28 105 5 25-11 106-25 127-8 11-15-10-18-14-8-6-14-1-22-3l-52-45c-7-13 1-18 2-30 1-10-7-17-8-27-1-7 7-16 8-23 2-10-1-20 0-30 3-32 29-43 45-67 15-22 0-89-7-113-10-37-21-19-33-32 0 0 22-4 20-11-4-13-34-5-43-10s-17-20-9-29c20-19 48 38 70 24 23-15-7-66 10-84 7-6 18-3 25-8 24-16 57-51 62-80 5-28-21-52-28-77-6-20-8-42-14-63-2-10-18-17-16-28 1-17 25-21 26-37 1-9-6-17-8-25-3-10-2-19-12-25-24-16-84 72-98-5-13-70 36-99 40-120 5-25-12-51-10-65 2-18 38-20 15-53-8-13-34-33-47-15-23 31 12 76-18 73-37-4-34-53-42-80-6-23-33-27-33-53 0-1-1-9 2-10 19-10 25 4 33 16 6 9 15 8 22 15 8 8 13 33 30 19 18-16 5-46 0-64-5-15 2-32-10-45-5-4-11-6-15-10-14-11-69-77-67-93 2-17 31-61 47-68 17-9 39 3 56-5 42-21 30-41 39-70 4-14 17-28 18-42 2-26-33-40-45-58-13-20-20-50-40-80-16-24-50-54-55-82-3-18-4-51 2-68 5-18 30-38 25-55-11-35-42-45-64-70-13-16 21-17 5-57-7-18-42-12-55-23-16-14-21-58-25-67-6-15-26-10-33-22 0 0 19 3 22 0 9-11-4-41-17-46-22-9-37 8-53 6-14-1-33-9-47-8-9 1-16 9-25 10-13 1-36-15-45 7-7 16 54 28 42 40-9 9-35 2-47 3-10 1-17 7-27 8-2 1-13-4-15-5-16-9-2-37-38-21-13 5 1 19 0 28l-5 17c-1 8 6 13 2 21l-5 7-7 7c-11 22 37 39 48 45 13 6 12 26 24 35 18 13 35-9 53-7 8 1 110 62 115 68 5 7 5 18 8 25l5 9 7 6c4 8-4 15-7 20-6 12-13 50-25 55-17 9-27-5-40-13-15-10-37 5-48-55-3-18 6-42-5-58-8-12-32-17-43-9-5 4-6 10-10 14-7 6-18 1-24 10-8 12 11 26 12 38 2 17-8 36-5 55 1 7 9 16 8 23-1 10-9 17-8 27 1 16 22 23 20 40-2 21-31 18-35 37-4 16 19 39 23 55 6 18-7 34-3 51 3 14 14 28 15 42 2 22-32 10-30 35 1 12 37 56 28 73-7 14-84 3-105 5-15 2-25-14-43-6-17 7 10 30 8 41 0 6-20 52-23 52-16 0-39-24-47-37-2-4-20-69-35-51-8 9 0 24-8 35-7 9-25 9-23 23 1 17 27 37 35 52 5 9 2 18 5 28 5 18 15 15 10 35-3 8-2 19-10 25-6 4-23 14-30 13-5 0-56-33-59-38-6-11-9-33-25-35-14-2-7 51-8 60-2 20-25 8-28 25-2 9 14 22 1 28-13 7-64-22-88-18-27 5-3 34-12 38-23 12-32-18-41-13-20 10-2 25-4 38-1 11-5 5-3 15 3 14 26 30 23 45-1 7-29-11-26 12 0 8 33 37 11 43-7 2-16-7-23-8-21-2-35 27-45 42-9 14 21 33 8 36-13 4-31-27-40-33-10-7-84-36-93-33-14 3 7 28-8 26-10-1-54-45-60-18-2 9 39 54 45 67 4 8-5 13-2 21 4 9 26 21 33 29 3 2 30 28 29 30-5 5-12-10-19-12-10-2-32 7-41 0-5-4 3-39-15-30-33 17-13 47-17 53-1 2-26-11-37 0-27 28 14 38 10 55-1 5-9-5-11-10-6-11-21-46-40-38-20 9 3 37 1 48 0 5-14 27-21 22-6-4 23-57 5-78-10-12-50 27-55 16-5-8 0-19-2-28-3-19-18-31-27-47-5-10-4-55-31-43-15 6-5 43-7 55-3 16-16 28-8 45 7 16 21-8 31-8 5 0-8 9-8 10-5 10 10 18-3 28-6 4-39 24-45 20-3-2 6-18 6-20 3-10 0-20 2-30 2-13 17-30-2-40-5-2-14 1-20 0-8-2-8-6-18-5-27 2 25 56-12 68-16 6-17-46-21-51-9-12-26-5-37-7-21-4-35-28-55-30-29-3-29 38-25 55 0 2-3-2-5-3l-27-27c-3-3-13-27-20-18-5 6 0 70-8 68-24-5 4-86 13-97 5-6 18-7 15-18-3-15-27 3-33 5-5 1 7-7 10-12 13-20 33-48 35-73 2-24-30-41-47-22-12 15 9 12 7 22-3 17-34 31-42 47-7 15 3 47-15 58-3 2-3-7-3-10 2-16 12-27 10-45-2-21-8-8-18-15-5-3-2-20-4-25-2-8-9-16-8-25 0-3 26-43 28-45 7-5 17-7 24-13 12-13 35-54 36-72 1-11-11-26-23-23s8 42-8 36c-13-4-5-43-2-53 5-18 31-28 33-50 1-11-5-10-13-10-5 0 4-9 7-13 8-16 13-34 23-49 13-19 78-61 80-75 1-9-15-8-20-8-14 1-19 13-30 15-4 1-8-20-15-23-5-2-20-1-18-10 4-36 26-43 43-69 7-10 0-26 8-35 9-8 25-1 35-8 11-7 10-22 20-30 7-5 16-5 20-15l2-10c-1-16-46-36-60-35-4 0-53 27-48 12 2-8 15-11 20-15 9-10 6-24 13-34 9-12 28-11 38-21 17-17 8-44 37-59 21-10 60-1 73-11 23-17 0-37 10-55 10-19 38-3 45-22 5-13-16-54-1-58 13-4 24 10 36-5 4-5-9-39 25-35 17 1 33 24 50 13 8-5 13-16 12-25 0-1-9-17-3-18 7-2 14 16 23 18 19 3 62 6 80-2 16-6 2-17 5-28 3-10 21-8 23-20 1-3-12-40 5-57 12-12 43 4 45-23 2-20-36-17-48-15-29 5-40 21-68-2-4-2-17-7-17-13s4-9 5-15c13-73 43-95 48-115 3-10 5-29-1-38-1-1-16-9-10-10 14-5 2 1 18-2 15-3 13-17 23-25 18-13 50 1 60-35 5-18-5-17-15-28-2-4 4-25-5-37-20-31-63-25-68-75-5-60 46 1 72-28 14-17-12-39-10-55 2-17 26-15 28-32 2-19-26-31-37-43-8-10-1-25-8-35-1-2-9-8-10-12 0-2 16-20 18-23 18-35 22-15 64 13 7 5 12 14 23 13 34-3 88-67 110-73 8-2 13 2 22-3 8-6 4-9 15-10 4-1 57 23 41-17-11-29-78-2-98 0-15 1-35 3-50 0l-45-10c-19-3-40 4-58-2l-44-40c-6-13 15-11 12-21-2-6-30-2-35-52-2-18 8-15 17-27 8-10 15-50 43-53 9-1 23 13 28 0 4-9 0-11 2-20 2-12 20-11 18-25-1-11-14-21-5-32 7-7 16-6 22-15 9-13 12-37 27-45 10-6 26 1 35-10 7-10 1-25 5-36 4-15 54-77 13-77-2 0 0-4 0-7 0-7 1-7-3-15-7-11-20-12-27-21-44-59-62-34-97-57-10-7-15-20-28-23-10-3-23 7-32 3-7-4-50-47-66-40-11 5 21 59 5 53-8-2-9-13-17-16-19-8-1 4-18-5-30-17-46-52-75-69-20-11-59 1-72-16-11-16-3-57-35-60-16-2-23 20-40 18-21-2-31-39-55-28-18 8 12 22 3 26-16 9-28-7-43-8-13-1-23 11-35 10-9-1-17-8-25-10-18-3-42-1-60 0-33 3-19 24-38 35-8 5-22-7-29-10-11-4-21-13-33-15-21-4 0 4-18-2-14-4-14-15-24-25-9-9-45-33-56-45-5-4-1-11-2-16-3-12-14-20-15-32-2-17 17-25 20-40 1-6 6-76 5-83-4-35-48-63-73-80-16-11-19-32-34-42-14-10-32-2-48-5-8-2-16-9-25-8s-16 7-25 8c-13 1-27-2-40 0l-93 35c-25 16-77 72-82 100-3 16-3 44 2 60 2 8 16 33 6 40-5 4-22-7-31-2-19 10-31 30-50 40-13 7-25 4-37 9-12 4-21 31-38 26-17-4 4-32-35-23-13 3-18 16-29 22-8 4-19 2-25 10-7 9-4 31-15 38-2 2 7-24 7-25 1-6 0-32-13-25-32 16-32 59-55 82-11 11-29 8-40 16-2 2-21 35-27 25-6-9 13-38 15-48l10-65c3-15 32-31 17-48-6-8-17 5-20 8-8 8-36 60-47 77-4 6-2 18-7 23-5 6 1-54-11-50-9 3-28 52-34 62-5 10-15 19-20 30-3 7 6 16 2 21-3 5-20-12-23 2-1 2 6 17 1 18-7 2-15-8-23-6-15 3-10 26-13 23-8-8-9-61-20-60-14 2-27 21-34 32-2 3-4 11-6 8-17-17 16-41 23-52 15-22-30-16-2-66 8-13 21-22 29-35 4-8 27-72 25-75-10-16-28 29-30 33-11 21-30 39-40 60-1 2-5 5-5 3 0-35 45-85 46-88 11-26 21-48 37-72 5-7 15-12 20-20 12-17 20-37 32-55 5-7 44-48 36-55-24-20-71 23-90 34-8 4-18 3-26 8-9 6-8 15-15 22-5 3-27 7-27-2 0-7 6-26 10-32 6-7 16-8 23-13 10-6 19-18 27-27 30-30 19-39 68-71 27-18 41-54 75-62 8-2 15 4 22 3 4 0 9-8 12-5 2 3-8 13 3 15 8 2 15-7 23-6 9 1 16 11 25 5 6-4-10-34 2-32 8 2 11 11 20 13 5 2 22-1 25 4 6 8-13 19 5 26 13 6 23-6 35-8 20-4 41 4 60-2 22-6 12-30 23-46 23-34 43-24 59-40 21-22 22-93 46-107 12-7 17 18 34 7 12-9 40-45 43-59 2-8-4-15-5-23-1-10-1-19-8-27-22-21-41 4-62 2-19-2-12-34-30-38-24-6-33 42-63 26-5-2-7-8-10-11-8-7-29 5-40 1-46-13-84-44-130-13-20 13-3 37-15 52-9 10-40 18-35 38 4 21 43-10 33 7-11 19-115 74-120 85-3 7 6 15 5 23 0 4-10 17-3 22 11 7 23-18 23-7 0 9-3 8-5 17-1 5 2 15 0 20-9 19-42 41-57 56-10 11-10 30-21 39-17 14 12-22-2-25-19-5-46 25-65 28-10 2-20-1-30 2-31 8-73 28-92 56-1 2-6 11-1 14 11 7 35-25 33-2-1 13-35 55-50 55s12-34-2-40c-15-7-38 41-55 43-19 3-21-36-43-38-15-1-27 22-38 18-7-1-8-13-37-16-12-1-30 18-38 1-4-7-1-11-2-18-7-40 4-14 10-45 3-15-5-33 5-47 14-19 41-14 60-18 9-2 16-8 25-10 19-3 41 0 60 0 12 0 50 6 48-15 0-5-5-13-10-15-3-1-36 5-43 5-29 0-51-6-80 2-16 4-21 20-40 18-21-2-36-24-50-38-11-11-27-11-23-30Z" class="c1"/><path d=" M3295 2170v10l-5 5v-10Z" class="c0"/><path d=" M3295 2190c15-45 35 38 80 30 13-2 19-15 32-18 28-9 50-2 78-2l42-5c2 1 7 10 6 13-3 12-34 7-43 7-19 0-41-3-60 0-9 2-16 8-25 10-10 2-20-1-30 2-64 17-23 49-45 80-11 14 1-24 0-32-1-15-12-18-15-30-2-7 1-14-2-22-4-11-14-16-20-25Z" class="c2"/><path d=" M3303 2217c11 10 2 21 7 31 0 1 34 47 8 55-12 5-8-33-8-38-1-17-11-28-8-45Z" class="c0"/><path d=" M3317 1662c8-7 23-13 28-24 2-4-12-45 0-43 7 1 14 20 17 27 3 8 6 18 1 26-1 4-51 29-51 19Z" class="c2"/><path d=" M3317 1692c19 6-18 52 15 85 6 6 55 30 63 31s16-8 23-6c15 3-31 34-33 35-22 11-47 7-70 13-2 1 1-4 2-7 2-5 2-11 5-16 5-11 21-10 23-24 1-11-19-6-23-15-4-7-1-11-2-18-2-9-8-16-10-25-3-19 10-31 5-50Z" class="c2"/><path d=" M3315 1700v10l-5 5v-10Z" class="c0"/><path d=" M3315 1800c4 0 27-3 30 0l-5 5c-14 20-16 1-25 15-5 7 1 31-5 25-4-4 0-34 0-40Z" class="c0"/><path d=" m3325 1630 5-10v-10c4-4 2 11 5 15l10 5c2 4-24 26-25 25-5-5 0-13 0-20Z" class="c0"/><path d=" M3325 1880c16 0 10-2 5 5l-5 10-5-5Z" class="c2"/><path d=" m3325 2330-5 5Z" class="c2"/><path d=" M3335 1900c38 0 8 5-5 5Z" class="c2"/><path d=" m3345 1830-5 5Z" class="c1"/><path d=" M3348 1922c11 3 16 15 27 16 6 1 15-6 22-3 6 3 48 31 48 35 0 3-3 14-5 17-10 13-34 16-47 26-14 11-23 27-38 37-2 1 2-3 3-5 12-14 27-27 40-40 7-7 33-18 30-30-3-13-68-35-81-48Z" class="c2"/><path d=" M3348 2372c26-26 51 5 57 6 19 5 26-27 48-15 15 8 15 38 37 35 13-1 44-49 53-43 3 2-12 30-5 38 6 7 26-5 30-8 10-7 38-52 29-63-4-5-39 18-32 6 15-26 64-48 92-56 9-3 18 0 28-2 15-3 52-31 63-28 7 1-21 22-3 26 16 4 23-31 30-40 5-7 16-9 22-15 10-10 0-2 8-15 7-10 20-16 27-26 5-8 12-48 1-52-5-2-15 18-18 13s6-17 5-23c-1-12-5-5-5-15 0-7 13-10 17-12 10-5 15-17 25-21l16-5c7-4 55-40 59-45 19-29-32 0-30-15 2-21 30-20 36-37 6-14-4-34 10-45 50-37 87 11 137 15 10 1 16-5 25-5 7 0 14 14 25 15 22 2 45-31 53-28 13 3 14 27 24 35 11 8 24-2 35-5 35-11 34 18 41 41 6 16-25 62-43 67-13 4-22-23-35-3-9 13-19 33-23 48-2 6 1 20-4 25-3 4-6-11-11-10-13 2-20 19-15 30 4 10 12 1 15 3 5 6-26 13-27 14-10 2-15 9-22 16-9 10-16 18-21 30-3 8 2 22-5 27-18 13-47 1-67 5-11 2-22 14-33 8-13-6 5-17-4-25-7-6-18-2-26-5-10-3-14-12-24-13-18-2 0 29-3 33-2 3-18-6-20-6-8-1-16 8-23 6-5-1 1-11-4-13-6-3-9 3-15 3-7 1-14-5-21-3-31 7-46 38-67 57-7 6-16 8-23 13-21 14-34 37-47 57-16 24-58 38-65 63-12 39 15 36 28 27 7-6 8-17 15-22s18-5 25-8c13-6 72-55 87-35 5 6-23 26-27 31-17 22-26 48-41 70-15 23-35 41-49 65-5 10-4 25-11 34-6 6-14 8-19 16-7 13-34 62-25 75 6 9 14-10 15-11 17-25 34-49 49-75 2-5 10-15 11-10 1 3-29 73-33 80-5 7-15 12-20 20-6 8-9 25-12 35-5 16 20 18 14 31-4 9-13 13-19 20-6 8-17 37-1 42 4 1 36-49 41-38 5 8 8 55 19 58 10 3 6-21 15-23 7-2 15 8 23 6 14-3-3-20 2-23 6-4 13 7 21 2 6-4-2-16-1-20 1-11 14-21 20-30 6-11 21-56 30-62 1-1 0 54 11 50 5-2 51-107 67-110 17-3-10 31-10 32-3 4-13 69-17 81-2 7-19 43-11 49 17 11 23-17 31-24 11-9 29-5 40-16 24-24 25-65 55-82 16-9-9 55 5 50 13-4 14-29 19-38 4-9 22-9 30-15 5-5 10-15 18-17 37-11 15 19 35 23 19 5 29-20 42-26 7-4 11-1 18-2 26-5 41-25 60-42 15-13 38 3 43-8 8-17-5-29-8-45-3-15-1-35 0-50 3-35 64-92 93-108 13-7 24-5 37-9 14-4 25-15 40-18 13-2 27 1 40 0 10-1 17-7 27-8 7-1 16 7 23 8 15 3 33-5 47 5 12 9 14 27 26 37 25 19 69 41 77 76 1 6-6 87-7 90-3 12-17 19-18 32-1 12 8 23 13 33 4 7-1 14 2 20 4 9 53 41 62 50 7 7 6 16 15 22 11 7 25 4 36 8 16 7 32 20 49 22 18 2 19-33 43-35 18-2 42-3 60 0 8 2 16 9 25 10 13 1 23-11 35-10 16 2 27 16 45 8s-12-22-3-26c20-11 34 26 53 28 17 2 24-20 38-18 33 3 19 44 35 60 15 14 55 4 80 21 23 16 39 42 60 59 8 6 17 5 25 10 7 3 9 14 17 16 33 8-9-50-3-53 12-8 57 36 65 40 9 5 21-6 31-3 14 4 18 16 29 23 21 14 49 9 81 37 7 5 9 14 15 20 8 8 20 10 25 21 4 7 0 14 2 20 2 5 11-1 13 4 2 3 3 15 2 18-3 18-26 34-30 55-2 9 3 20-2 28-6 13-29 5-40 15-10 11-13 28-21 40-7 10-21 10-25 22-6 13 10 22 6 33-2 7-13 10-16 17-3 5 1 21-4 25-4 3-18-5-23-5-26 2-37 35-47 53-7 15-22 15-18 37 2 9 10 37 17 42l18 6c-18 27 11-27-12 9-11 17 16 23 24 31 7 7 6 16 15 22 19 13 47 1 68 5 33 6 71 18 105 8 14-3 82-23 85 2 3 28-30 6-40 7s-12 11-20 13h-13c-34 8-72 69-114 73-14 2-60-49-73-46-12 2-14 20-18 28-4 7-14 10-17 17-4 8 8 13 12 20 5 9 1 18 5 28 6 15 36 24 38 40 2 19-30 19-28 40 1 14 24 42 6 52-22 12-65-27-68 13-6 69 55 65 72 95 7 13-3 18 0 30 2 12 19 11 18 25-3 33-40 23-58 35-10 7-9 22-22 25-7 1-22-3-25 7-2 6 11 10 13 15 4 6 3 21 2 28-2 9-25 42-32 53-12 23-17 54-23 79-4 20 49 36 65 33 11-2 62-25 68-3 7 22-41 14-46 28-3 8-11 27-10 35 0 7 10 15 5 22-7 7-17 5-22 15-6 12 14 26-10 28-20 2-50 4-70 0-11-2-12-21-25-18s6 32-8 43c-17 13-36-17-55-12-37 11-16 25-22 35-9 15-25 1-35 4-27 6 12 50-3 65-11 11-31-2-42 15-12 18 11 38-8 55-15 12-62-6-89 21-8 9-17 45-20 47-4 3-14-9-20-10-1 0-15 3-11-3 6-10 21-7 30-15 17-17 4-51 26-67 11-8 24-3 35-8 16-8 43-29 54-44 7-10 0-6 5-16 4-10 16 6 18-12 2-19-31-39-35-70-1-11 23-39 8-45-11-5-78 76-78 25 0-5 22-8 27-13 6-7-1-14 3-20 2-3 12-6 13-7 15-10 37-32 47-47 3-4 14-36 8-40-5-3-33 10-28 0 31-55 10-32 15-83 1-10 13-24 7-33-9-14-35-5-47-7-9-2-16-8-25-10-19-4-78 3-92 18-12 15 13 18 12 32-2 16-22 21-20 40 2 18 18 8 25 17 3 4-6 26-5 33 4 24 33 37 30 65 0 5-12 50-13 53-5 8-14 12-15 22-1 8 8 16 6 23-1 4-39 12-48 19-9 6 0 10-5 16-5 7-67 15-80 34-10 15 15 34-7 45-16 8-29-27-43-5-4 6-5 58-12 53-11-7-7-24-13-33l-20-30c-10-15-56-30-60-52-2-9 29 9 32 10 10 2 8-6 15-10 10-6 19 4 33-17 27-41-24-93-42-125-11-21 24-25 14-41-4-6-30-2-34 1l-8 17c-1 3-1 12-3 10-7-6-5-32-10-42-3-5-28-35-27-38 2-10 20-15 12-28-13-20-55-24-47-62 6-28 37 11 48 5 11-5 14-25 12-35-4-20-49-38-67-40-12-1-19 9-31 2-33-18-30-33-50-59-6-7-23-39-10-48 4-4 10 6 11 7 6 4 17 8 20 15 5 8 4 17 10 25l42 46c14 6 35-7 33-23-1-17-26-40-25-42 2-1 16 14 17 15 7 7 15 9 22 15 15 15 25 43 53 45 31 3 5-55 12-56 8-2 13 17 23 18 29 3 30-73 27-78-7-11-50-18-45-35 1-7 9-6 13-7s11-5 15-5c8 0 28 34 52 7 14-17-13-21-10-35 0-4 53 34 58 41 2 4 5 20 13 17 11-4 16-28 22-37 9-13 24-20 32-35 3-6 2-18 10-21 6-4 21-3 28-2 15 3-2 42 0 55 2 9 17 35 28 30 8-3 9-15 15-20 8-5 13 17 19 20 8 4 16-6 21-10 14-9 24-5 35-10 13-6-2-20-1-28 0-6 5-11 6-17 4-13 2-24 9-37 5-9 16-19 18-30 1-6-2-13 2-20 11-22 45-9 58-35 3-5-9-54-17-58-4-2-9 0-13 0-5 0 7-7 10-12 6-9 1-25 15-28 20-4 40 16 57-7 10-13 16-46 13-63-6-34-26 4-33 10-8 5-18 3-25 8-3 3 0 22-9 14-5-6 4-14 2-20-5-23-20-15 0-44 8-10 59 2 53-23-2-10-14-10-20-15-9-7-10-20-21-27-43-23-38 4-72-46-15-22-29-19-13-50 4-9 28-13 36-22 7-7 8-16 15-22s18-3 25-8c6-4 11-14 20-13s23 29 29 21c6-7 1-8 5-16 2-5 11 1 15-4 7-9 3-31 15-38 13-8 16 48 40 27 14-13 13-35 21-50 4-7 21-33 25-37 10-7 7 1 15-8s-6-20-1-30c2-5 8-7 11-10 6-7-2-14-1-20l6-17c2-16-24-58-43-53-17 3-2 41-22 31-7-4-11-11-16-16-29-29-59-39-97-47-11-2-12-21-25-18-20 4 9 61 10 73 0 3 0 12-3 10-7-4-37-56-44-65-8-12-19-8-30-15-18-12-21-38-40-50-8-5-18-4-26-8-8-5-12-14-22-15-13-2-8 20-15 10-8-12-34-49-52-34-25 22 19 51 30 64 10 11 55 72 50 81-16 34-62-81-81-70-14 9 1 130-44 135-18 3 10-21 10-23 4-10 0-9 2-20 2-9 8-16 10-25 4-21 4-40 0-60-2-10 2-20-2-30s-12-10-20-15c-7-5-12-15-20-20-11-8-25-2-36-8-25-14-44-48-59-54-6-2-10-3-15 4l-6 18c-7-5-6-15-14-20-11-8-25-2-36-8-21-12-49-55-55-60-7-6-14 3-20 1-5-1-1-14-2-16-7-15-30-23-30-42 0-6 11-9 13-15 7-15-3-33 5-48 9-16 1 3 12-14 5-8 4-18 8-26 5-9 13-12 15-22 7-25-3 5 2-20 2-8 9-16 10-25 1-11-10-44-18-52l-52-36c-14-2-12 18-23 16-12-1-59-39-79-43-16-4-32 14-48 15-19 2-26-6-60 0-16 3-34 15-48 23-8 5-18 7-25 12-16 11-22 29-30 45-4 8-10 16-12 25-7 38 16 91 33 123 6 11 5 25 12 35 6 9 15 8 22 15 4 4 5 10 10 14 10 7 6 0 16 5 5 2 1 11 4 15 2 3 9 4 8 8-1 3-9 11-10 12-11 9-8-8-18-7-13 2-16 18-27 20-6 1-6-12-13-10-10 3-6 23-15 30-12 9-28 12-40 20-11 7-19 26-32 30-9 3-16-6-25-5-12 1-94 29-103 35-12 7-24 33-30 45-6 11-20 12-22 25-5 25-3 37-17 62-1 3-4 11-6 8-3-3 8-25 8-30-1-8-12-46-23-40-14 7-42 75-40 90 1 9 9 16 8 25-1 12-18 12-20 25-3 16 1 34 0 50-1 12-10 21-7 33 4 12 14 22 15 34 1 8-10 9-13 15-4 10 19 47-20 43-12-1-11-21-25-18-9 2-18 39-15 46 9 21 44 16 60 17 11 1 24 7 35 10 24 7 32 54 50 58 8 2 17-7 25-8 10-2 17 3 27 5 11 3 20-7 31-3 18 5 25 31 44 33 11 1 6-19 15-23 9-5 15 0 20 8 7 13 3 33 11 43 6 7 17 8 22 15 9 12 43 75 40 87-1 5-8 8-10 12-5 7-7 16-13 23-23 26-70 41-87 67-8 12-3 25-5 38-1 6-8 16-5 23 5 11 20 11 27 22 16 30 3 45 36 72l30 20c9 6 19 0 27 6 15 13 37 54 58 75 16 16 16-14 42 25 16 25-27 0-25 27 1 14 18 14 25 23l32 44c7 13-4 35 10 45 12 9 31-2 45 8 17 13-25 39-5 52 18 11 30-29 41-22 8 5 5 13 17 15 2 0 22-3 20 5-2 10-27 25-5 33 14 6 22-7 35-8 7-1 11 4 17 5 7 2 14-4 21-3 1 0 19 7 10 11-25 13-98-20-98 29 0 18 30 2 37 0 13-4 65-9 75 1 20 21-49 32-30 44 10 7 50-23 53 3s-38 45-40 70 33 31 30 55c-1 11-31 18-13 32 5 4 48 2 38 20-5 9-22 12-30 20-37 36-16 45-55 38-9-2-19 1-27-5-2-2-29-43-46-57-24-18-72 7-90 25s18 40 31 45c20 8 14-14 27-18s69 44 63 63c-7 25-15 25-38 27-17 1-23 10-37-5-10-11 1-30-15-42-12-9-53 0-56 17-3 13 16 18 13 30-2 8-11 11-13 20-7 25 3-5-2 20-3 17-14 33-18 50-11 40 5 87 40 110 20 14 37-30 45-22 17 17 1 47 3 67 2 22 22 36 28 57 7 21-2 46 2 68 5 28 45 15 40 75-2 20-25 8-28 25-5 20 34 12 43 23 28 37-28 43-50 47-7 1-16 9-23 8-16-1-22-54-39-31-21 28 23 60 34 80 10 19-16 20-12 31 3 8 15 9 20 15 9 12 26 42 25 57-1 14-40 41-52 47s-31-13-63 35c-5 6-3 10-5 18-4 15-14 25-18 40-6 20-1 37-9 57l-6 18c-7-7 0-26-4-35-4-11-13-2-20-2-10 2-30-19-38-1-3 8 8 14 12 20 8 12 10 30 21 40 4 3 19 1 19 1 1 2-14 16-15 17-30 20-63-47-87-53-21-6-59-6-80-2-6 1-17 10-23 8l-5-5c-7-24 44-16 53-18 18-3 37-32 35-50-2-24-23 2-32 3-6 1-15-6-21-3s-6 8-12 10c-11 3-16-16-28-10s-17 30-29 33c-13 4-17-22-28-26-17-7-40 14-63 6-5-1 21-4 23-5 12-3 42-16 38-33-2-12-21-10-30-15-11-7-40-35-53-33-15 1-16 28-28 26-14-1-29-30-45-23-18 8-4 57-2 70 2 16-34 23-38 8-3-9 21-9 25-15 6-8 5-28-4-35-8-6-18-1-26 2-35 14-32 13-50 45-3 5-22 16-15 22 8 7 29 4 38 1 4-1 9-8 12-5 2 3-5 7-9 9-11 6-71 1-78-9-2-3 3-12 3-13 1-8-5-19-10-25-9-14-20-20 4-32 9-4 23 4 21 15-1 10-21 61 10 49 9-4 27-24 22-35-2-4-9-8-12-10-11-13-10-48-38-45-33 3-41 2-63 25-4 4-16 8-12 16 2 5 30 46 23 52-4 4-7-11-13-13-6-3-11 0-17-5-6-6 5-16 5-22 1-11-7-15-16-12-60 24-1 80-12 95-3 4-10 2-15 4-9 2-13 8-20 13v-13c-2-10-7-17-5-27 1-4 21-52-3-40-8 4-12 16-20 20-11 5-18-6-27 7-4 5-11 53 3 48 13-4 2-23 9-30 4-5 2 13 3 20s9 16 8 23c-1 9-15 41-20 50-2 6-15-3-18-3-18-3-41 6-57-5-15-11 17-22 5-32-10-8-22-1-30-15-2-4-2-40 0-38 12 7 1 25 9 32 7 6 29 5 35-4 6-10-15-31-5-38 7-5 22 13 26-5 5-19-31-35-36-52-16-53 23-24 28-53 2-11 1-29-2-40-1-5-10-16-5-22 18-17 50 15 67 17 10 1 17-7 27-8 21-3 42 33 66 15 13-10-3-19-1-30 1-14 12-21 5-35-2-4-26-27-20-30 7-4 11-1 18-2s16-10 23-8c5 1 1 14 2 16 3 6 8 6 10 12 0 1-5 42 0 53s24 5 33 10 18 22 30 14c16-10-3-111 32-107 12 1 12 20 8 28-9 20-24 13-18 47 3 16 41 78 57 80 19 2-3-39-2-45 1-9 9-16 8-25 0-6-14-24-6-30 9-7 45 42 63 43 17 2 12-30 23-26 17 5 14 36 29 43 16 8 10-27 20-20 19 13-6 32 6 47 19 21 59 21 79 41 15 16-7 58 18 55 14-1 25-21 35-30 11-9 8 10 18 7 4-1 9-11 10-13 19-28 11-22 17-52 3-16 26-20 28-40 2-21-20 1-26-12-5-9-4-26 8-28 34-7 6 18 22 25s14-28 26-23c10 3 7 15 4 21-5 9-29 22-22 35 11 22 43 25 60 40 8 7 46 47 52 49 37 15 31-53 43-69 10-13 31-3 35-23 5-29-16-55-10-85 3-14 19-11 25-22 3-7-4-17-5-23-2-13 1-27 0-40-3-38-42-69-30-135 10-56 63 12 55-23-5-22-28-43-40-60-14-21-4-43-8-55-4-11-20-17-22-27-2-9 27-1 18-22-11-29-28-38-40-60-4-8-3-18-8-26s-15-13-20-20c-6-10-7-23-12-34s-23-34-21-46c1-13 18-18 16-32l-6-17c-1-2 1-35 1-35 7-7 19-1 27-5 12-5-1-18 3-26 5-10 29-22 22-35l-52-39c-13-6-29-3-43-11-18-10-7-34-30-40-54-15-35 30-50 50-5 6-46 8-48 1-2-6 6-15 3-21-5-11-17-17-20-30-2-8 4-15 3-22-1-11-13-20 0-30 10-7 48-25 50-35 0 0-23-94-26-97-13-12-36-12-47-26-8-11 5-20 0-30-7-14-37-19-35-37 2-15 61-10 55-28-5-16-62-5-75-7-9-2-16-8-25-10-31-6-61 16-95 10-8-2-16-9-25-8-18 1-49 38-58 36-6-1 5-10 8-15 2-5-1-14 0-20 2-9 10-15 10-25 0-14-26-5-30-18-3-11 14-18 15-30 2-25-26-18-35-32-2-2 28-3 30-3 37 0 13-15 60-2 11 3 9 0 18 5 25 14-5 27-6 42-3 29 48 19 56 12 5-4 0-11 4-15 4-5 11-6 15-10 15-18-22-35-29-49-4-9 5-19 0-30-5-14-14-15-25-23-8-6 3-18-8-23-8-4-21-2-30-2-46 0-48 16-85 25-8 2 12-12 17-18 7-10 17-49 18-62 1-16 6-55-3-68-7-9-31 4-24-10 5-10 5-5 14-10 6-4 13-11 21-10 11 1 7 4 15 10 9 5 14 1 22 3 17 5 21 25 48 12 22-11 3-21 10-35 6-11 20-10 25-22 4-8 2-19 10-25 20-15 49-12 64-33 11-18-1-38 26-57 45-29 53-6 62-55 2-12 13-21 5-33-11-17-31-4-42-15-8-9 3-27-10-32-12-5-27 14-40 2-5-6-16-45-30-54-11-6-21 11-30 4-12-11-22-28-40-32-17-4-17 35-25 30-6-4-10-26-21-20-23 11-10 27-15 43-5 14-28 66-25 77 1 6 14 10 13 15-2 12-36 20-30 33 7 14 33 6 35 22 4 32-51 43-55 72-2 12 22 5 20 13-3 14-28 28-37 38 0 0-10 18-11 17-5-4 17-83 23-92 12-16 37-4 43-28 8-29-30-28-28-50 1-13 15-18 18-30 7-25-3 5 2-20 7-40 31-67 20-130-5-30-33-52-47-77-13-23-26-94-41-110-10-9-24-6-34-13l-26-32c-5-10 2-6-5-16-8-10-13-2-22-2-7 0-15-18-22-22-14-7-27 1-36-16-4-7-9-17-5-25 4-9 18 6 16-12-4-42-36-44-45-72-3-9 10-42 2-61-5-13-19 4-23-4-5-8 0-19-2-28-2-13-16-14-22-25-5-10-5-24-11-33-4-5-10-6-14-10-8-10 14-27 4-40-14-19-42-22-45-54-3-22 27-45 3-81-8-13-18-10-30-7-1 0 7-16-2-20-14-6-16 23-30 3-11-17-5-21-3-38 1-10-3-10-5-18s5-15 3-22c-2-8-13-10-16-17-5-10 2-6-5-16-5-7-15-10-20-15Z" class="c2"/><path d=" M3347 2385c17 6 12 16 21 28 4 5 10 6 14 10 4 6-3 14-2 20 1 8 12 26-2 30-8 3-29-77-31-86Z" class="c0"/><path d=" M3355 1570c33-67-25 45 15-15 4-5 1-21 10-25l5 5-10 5c-3 5-3 18-10 25-4 4-11 6-15 10Z" class="c2"/><path d=" M3358 1942c14 4 61 20 65 35 2 5-25 22-30 26-2 3-28 30-30 29-3-3 4-8 5-12 3-8 2-12 2-20 0-21-9-34-13-53Z" class="c0"/><path d=" m3355 2270 5-10 5 5c-3 5-11 6-15 10Z" class="c3"/><path d=" M3365 1810c19 0 10 26 0 5Z" class="c0"/><path d=" m3365 1830-5 5Z" class="c1"/><path d=" m3375 1730-5 5Z" class="c3"/><path d=" M3385 1630h10l-5 5h-10Z" class="c2"/><path d=" M3387 2053c14-14 28-36 46-46 8-5 18-7 25-12 11-7 18-15 30-20 8-3 26-5 22 10-2 8-20 13-27 17-12 6-25 21-38 23-10 2-19-1-28 5-6 4-28 34-34 28Z" class="c2"/><path d=" m3395 1520-5 5Z" class="c0"/><path d=" M3397 1692c21-16 40-7 63-14 6-1 27-24 30-8 1 5-15 7-18 8-23 12 5-2-15 12-14 9-47 8-62 3Z" class="c2"/><path d=" m3405 1510-5 5Z" class="c2"/><path d=" M3405 1730h10l-5 5h-10Z" class="c3"/><path d=" M3405 2518c3-3 12-17 18-13 3 2-5 14-3 18 2 6 15-2 18-1 12 1 20 17 22 26 2 8-6 52-17 44-3-3-37-62-38-67Z" class="c0"/><path d=" m3415 1650-5 5Z" class="c3"/><path d=" M3425 1580h10l-5 5h-10Z" class="c3"/><path d=" M3435 1480c16 0 10-2 5 5l-5 10-5-5Z" class="c2"/><path d=" m3435 5210 5-10c4-2 17 13 15 20-6 17-25 23-25 0Z" class="c2"/><path d=" M3437 5242c47-36 3-30 8-54 4-20 35-15 33-33-1-9-18-17-13-27 4-7 20-1 27-6 6-5 7-16 15-20s17-1 21-12c7-17-6-16-13-27-3-5 10-8 13-13 7-10 17-18 24-28 3-6 0-18 1-19 1 0 15 7 20 4 17-11-8-38 7-42 16-5 23 46 45 13 8-11 2-25 8-36 4-7 16-12 12-20-6-13-16 3-23-4-12-11-25-41-22-58 8-44 39-31 52-53 24-43 16-62 8-107-1-7-9-16-8-23 1-10 9-17 8-27-1-8-7-13-5-22 7-29 22-58 25-88 3-41-11-76-10-85 1-14 7-31 10-45 5-26 27-39 42-58 5-7 8-17 13-24s12 0 18-3c7-3 10-13 17-17 10-5 52-16 48-33-2-12-19-12-25-22-15-27 1-47-58-58-9-2-39 8-43 5-18-13 34-50 36-60 5-20-28-9-26-23 1-13 26-45 36-52 8-5 18-3 25-8 5-4 0-11 4-15 11-12 29-9 41-17 16-11 25-25 44-32 9-3 53 11 73 7 9-2 16-8 25-10 21-4 36 8 55 10 13 1 56-8 65 2 3 3-50 18-52 20-17 23 25 32 32 46 5 10-7 19 0 30 9 15 34 17 47 27 15 12 9 37 13 53 2 10 16 31 13 40-4 16-39 24-50 35-12 13-1 21 0 34 1 7-5 14-3 21 3 13 15 20 20 30s-11 21 2 29c8 5 14-3 23-2 64 8 8-66 70-55 24 4 15 32 38 43 14 7 31 4 44 12 7 5 12 15 20 20 6 4 19 6 23 13 6 10-18 25-22 34-3 7 5 17 2 21-6 8-24-3-32 9-5 8 3 14 2 23 0 3-4 12-3 15l6 17c2 12-15 16-16 28-2 15 15 36 21 48 6 11 5 25 12 35 5 8 15 13 20 20 5 8 4 17 8 25 9 17 29 37 40 60 9 18-20 6-18 20 2 13 16 18 22 29 4 8-3 13-2 21 1 9 4 19 7 27 3 14 48 66 43 73-4 6-25-17-33-13-9 5-20 20-22 30-12 67 26 95 30 135 1 13-2 27 0 40 1 5 8 16 5 22-6 11-22 8-25 23-5 30 16 56 10 85-3 16-27 9-35 22-13 18-3 44-20 60-23 19-27-15-43-24-12-6-18-16-29-23-15-10-44-15-53-33-5-10 18-26 22-34s4-30-12-26c-12 2-10 21-20 23-7 1 3-18-2-22-8-6-28-5-35 4-6 8-6 29 4 35 5 3 23-6 21 1-5 19-26 29-28 42-2 10 1 19-2 28-1 3-20 33-21 32-5-3-6-15-15-10-11 5-26 37-40 33s1-34-5-45c-15-26-61-32-84-48-14-10 17-46-15-50-12-1-5 22-13 20-16-3-14-48-35-43-14 3-6 33-23 25-9-5-54-52-64-40s4 23 5 35c1 8-7 15-8 23 0 3 16 47 3 40-20-11-58-80-46-103 7-15 22-15 18-37-2-10-10-16-20-15-30 3-22 106-32 108-9 3-20-14-28-16-5-2-22 1-25-4-8-10 2-42 0-51-4-19-1 2-10-15-2-4 3-15-2-19-9-6-23 6-33 7-44 4 3 24 5 45 1 9-7 16-8 25s13 22 1 28c-22 12-38-14-58-16-9-1-16 7-25 8-19 2-60-40-77-13-3 5 10 49 7 63-3 17-27 6-30 25-8 43 42 67 38 78-4 15-26-10-28 12-1 11 18 31 0 35-3 1-15 0-18-2-5-2-1-13-2-16-4-19-20-28-13-50 3-12 18-19 16-32-2-21-22-18-16-48Z" class="c1"/><path d=" M3435 5280c8 16 17 19 0 30l-5 5c-3-3 0-26 0-30Z" class="c2"/><path d=" m3445 1610 5-10v-10c5-5 37 3 25 15h-10c-14 3-10 10-25 10Z" class="c3"/><path d=" m3445 2010-5 5Z" class="c1"/><path d=" m3445 5180-5 5Z" class="c2"/><path d=" M3445 5420c10 0 23-6 15 5l-5 10-5-5-10-5Z" class="c0"/><path d=" M3457 1458c23-30 16-14 35-51 5-11 42 20 31 41-10 22-43-5-56 2-5 2-7 7-10 10Z" class="c0"/><path d=" m3455 5160-5 5Z" class="c0"/><path d=" M3465 1460c10-21 19 5 0 5Z" class="c2"/><path d=" m3465 2600 5-10c4-3 19 1 15 5h-10c-8 2-10 5-15 10Z" class="c1"/><path d=" M3465 5140c2 4 15 20 10 25-12 12-15-12-15-15Z" class="c2"/><path d=" m3475 2540-5 5Z" class="c0"/><path d=" M3475 2650c9 17 16 4 20 15 3 9 4 25-10 20-13-4 5-20-15-30Z" class="c0"/><path d=" M3475 5110c10-21 19 5 0 5Z" class="c0"/><path d=" M3475 5430h10l-5 5h-10Z" class="c0"/><path d=" M3485 1220v10l-5 5v-10Z" class="c2"/><path d=" M3485 1240v10l-5 5v-10Z" class="c0"/><path d=" M3485 2628c16-15 34-42 53-53 14-8-1 28-1 30-4 12-2 43-19 48-7 2-27-16-33-20Z" class="c1"/><path d=" M3485 5088c6-16 17-23 27-36 6-8 6-26 15-30 8-4 9 1 16-5 5-4 0-14 2-19 3-5 19-22 27-15 5 5 4 18-4 20-3 1-16-7-18-1v13c-4 15-28 31-38 43-7 9 12 14 13 22 2 16-15 12-23 18-2 2-16 26-19 24-3-3 5-8 5-12l-3-15Z" class="c2"/><path d=" m3485 5440-5 5Z" class="c1"/><path d=" M3488 5462c22-6 46 4 49 1l21-58c0-6-5-11-6-17-3-8 1-19-5-26-11-13-12 27-14 28-2 2-3-7-3-10-1-10-2-29 8-35 5-3 15 3 20 0s18-25 25-20c8 5-5 24-6 30-2 5 1 51 6 50 11-2 7-4 15-10 8-5 18-3 25-8 4-3-32-73 9-94 29-14-24 61 28 57 45-4-18-60 13-87 9-7 51-14 60-10 17 9 18 22 24 37 2 6 13 9 13 15 0 8-13 31-23 28-22-6 13-49-9-63-26-17-57 40-51 60 6 25 29 17 48 20 24 4 38 16 65 8 12-3 17-16 30-18 14-2 37 5 45-12 3-6-12-54-3-71 4-10 40 23 48 21 14-3 11-28 28-26 13 1 35 22 45 30 7 5 28 7 30 15 7 24-75 28-61 40 19 16 44-9 63-7 16 2 12 27 30 28 17 2 19-28 35-33 9-3 13 8 22 10 13 3 1-10 33-7 9 1 23-17 28-13 9 6-10 41-16 45-14 10-32 2-47 5-11 2-35 21-18 32 9 6 23-6 33-7 21-2 50-4 70 0s33 30 48 42c6 4 25 10 27 18 2 12-90 23-100 25-22 4-95 30-122 38-9 3-18 0-28 2-9 2-16 8-25 10-13 2-27-1-40 0s-23 9-35 10c-10 1-20-2-30 0-9 2-16 8-25 10-13 2-27-1-40 0s-23 9-35 10c-29 3-124 5-150 0-15-3-80-27-92-35-15-10-24-30-40-40-7-5-15-7-21-13Z" class="c0"/><path d=" M3493 1255c3 8 1 16 4 25 6 22 21 20 18 50-2 17-17 24-20 40-1 5 0 15 2 20 1 4 8 9 5 12-7 7-11-32-10-35 4-14 17-28 18-42 2-26-24-41-18-68Z" class="c2"/><path d=" M3495 1290c0 13 18 32 10 45l-10 5c-3 4-1 19-5 15-6-6 0-51 0-60Z" class="c0"/><path d=" M3497 1468c10-10 30-6 33-23 2-10-9-35-3-30s15 13 16 22c1 10-40 46-46 40Z" class="c2"/><path d=" M3495 5260c8-16 24-9 30 0 3 4 2 35 0 40-5 15-8-4-10-5-6-4-19-1-25-10-4-6 0-13 0-20Z" class="c1"/><path d=" M3495 5380c9 18 13 14-5 5Z" class="c0"/><path d=" M3505 1130c5-9 1-25 15-20 6 2 9 41 5 45s-9-9-15-10c-13-3-10 7-10-10Z" class="c0"/><path d=" M3507 1152c55 13-3-60 15-77 4-5 2 13 3 20 2 12 12 21 15 33 2 8-5 15-3 22 1 5 8 10 13 8 10-2 2-11 5-16 0-1 30 21 28 26-6 20-67-8-78-15Z" class="c2"/><path d=" m3505 1170-5 5Z" class="c3"/><path d=" M3505 1820h10l-5 5h-10Z" class="c2"/><path d=" M3505 2710v10l-5 5v-10Z" class="c0"/><path d=" m3505 5050 5-10v-10l5 5c4 13-8 13-15 20Z" class="c0"/><path d=" M3505 5210h10l-5 5h-10Z" class="c1"/><path d=" M3515 2700h10l-5 5h-10Z" class="c0"/><path d=" m3515 2740-5 5Z" class="c0"/><path d=" M3525 1040c0 13-5 43-5 5Z" class="c0"/><path d=" m3525 2480 5-10v-10c4-4 14 1 15 5v10c-3 5-12 5-15 10l-5 10-5-5Z" class="c1"/><path d=" M3525 2760c21 0 6 26 5 25v-10l-5-10Z" class="c0"/><path d=" m3525 5410-5 5Z" class="c0"/><path d=" M3535 980c0 2-1 39-5 35-3-3 0-26 0-30Z" class="c1"/><path d=" M3535 1020c0 2-1 39-5 35-3-3 0-26 0-30Z" class="c2"/><path d=" M3535 1080v10l-5 5v-10Z" class="c3"/><path d=" M3538 1822c21-6 41-8 62-14 25-6 51-23 77-26 7-1 16 7 23 8 12 2 27-4 38 2 9 4-37 26-40 30-10 17 19 21-8 45-20 17-65 13-90 18-16 3-25 14-43 8-35-10 21-12-20-66Z" class="c2"/><path d=" M3535 5010h10l-5 5h-10Z" class="c0"/><path d=" m3535 5060-5 5Z" class="c3"/><path d=" m3535 5230-5 5Z" class="c1"/><path d=" m3535 5420-5 5Z" class="c1"/><path d=" M3545 960c3-6 1-14 5-20l10-5 5-5c10 10-21 31-25 35Z" class="c1"/><path d=" m3545 2710-5 5Z" class="c0"/><path d=" m3555 2340-5 5Z" class="c2"/><path d=" m3555 2510 25-30c4-3 17 0 15 5l-10 5c-4 6 2 14 0 20l-5 5-5 10v10c-6 6-25-7-25-20Z" class="c1"/><path d=" M3555 2750c11-14 26-51 45-55s-16 38-17 38c-5 8-19 42-30 25Z" class="c0"/><path d=" M3555 2800c25 0-4 2 0 15 13 39 10-28 10 15 0 5 0 17-5 15-11-5-10-26-10-35Z" class="c0"/><path d=" M3565 1430c26 0-5 31-5 5Z" class="c2"/><path d=" m3565 2700-5 5Z" class="c0"/><path d=" m3565 2870-5 5Z" class="c0"/><path d=" M3565 5530c16 0 6-3 15 10l5 5-5-5c-10-6-9-5-20-5Z" class="c2"/><path d=" M3575 910c1-2 18-22 20-20s-5 10-10 15c-4 4-11 6-15 10Z" class="c0"/><path d=" M3575 920c1-2 18-22 20-20s-5 10-10 15c-4 4-11 6-15 10Z" class="c2"/><path d=" M3575 2890c21 0 6 26 5 25v-10l-5-10Z" class="c0"/><path d=" m3575 5030-5 5Z" class="c2"/><path d=" M3575 5120c19 0 10 26 0 5Z" class="c2"/><path d=" M3585 920c33-67-25 45 15-15v-10c1-4 21-27 25-25l5 10 5 5c-18 18-2-22-20 5-4 6-1 19-10 25-6 4-15 0-25 10Z" class="c1"/><path d=" M3585 2660v10l-5 5v-10Z" class="c0"/><path d=" M3585 2830c11-22 6-1 10 5 6 8 16 6 10 25-5 15-8-4-10-5-12-8-15 5-15-15Z" class="c1"/><path d=" m3585 2920-5 5Z" class="c2"/><path d=" m3585 2930-5 5Z" class="c0"/><path d=" M3585 4910h10c5 5 1 14 5 20 2 3 13 7 15 10s1 27 0 30c-1 4-11 9-15 5-5-5-1-14-5-20-3-5-12-5-15-10-3-4 0-24 0-30Z" class="c0"/><path d=" M3585 4950c9 18 13 14-5 5Z" class="c2"/><path d=" M3595 2588c11-8 33-25 45-10 4 6-6 52-10 59-14 20 0-8-12 15l-6 18c-4-4-2-10-4-15-7-27-24-19-16-58Z" class="c0"/><path d=" m3595 2780-5 5Z" class="c1"/><path d=" M3595 2900c0 19 10 45 10 45l-5-5c-16-10-10-16-10-35Z" class="c1"/><path d=" M3593 4877c11 11 13 41 29 48 4 2 16-6 18-3 3 5-10 15-12 20-6 12 1 41-21 41-5 0 7-6 10-10 4-5 4-12 3-18-2-29-34-43-28-75Z" class="c2"/><path d=" m3595 5060-5 5Z" class="c2"/><path d=" M3595 5220c25 0-4-3 15 10 6 4 19 1 25 10 3 5-6 23-10 25h-10c-20 0-7-3-15-15-11-16-10 6-10-25Z" class="c1"/><path d=" m3595 5310-5 5Z" class="c0"/><path d=" m3605 880 5-10 5 5c-3 5-11 6-15 10Z" class="c2"/><path d=" M3605 2880v10l-5 5v-10Z" class="c1"/><path d=" M3605 5080v10l-5 5v-10Z" class="c2"/><path d=" M3605 5350v10l-5 5v-10Z" class="c1"/><path d=" M3618 2992c20-5 19 12 30 21 7 6 14-3 20-1 9 2 6 16 10 21 7 10 14 13 22 25 10 15 30 7 40 20 8 12 30 92 50 122 4 7-12-10-17-17-8-13-12-27-21-40-19-24-50-41-67-66-5-7-7-17-13-24-7-6-17-8-24-13l-31-43Z" class="c0"/><path d=" m3625 5550-5 5Z" class="c2"/><path d=" M3635 860c6-12 14-10 20-20l5-10 5 5-10 5c-11 8 2 3-10 15l-10 5c-4 13 24 20-5 5Z" class="c1"/><path d=" m3635 2590-5 5Z" class="c2"/><path d=" M3635 4790c8-15-1-54 5-60 5-5 5 25 5 25 0 8 4 34 0 40l-10 5c-7 5-5 11-5-5Z" class="c0"/><path d=" M3637 4808c34-45-10-96 10-145l6-18c8 7-6 23-6 30-3 28 35 61 6 113-5 9-5 20-15 25Z" class="c2"/><path d=" M3635 4980c2 4 15 20 10 25l-5-5c-13-9-10 1-10-15Z" class="c3"/><path d=" M3635 5020c0 13-5 43-5 5Z" class="c2"/><path d=" m3635 5060-5 5Z" class="c2"/><path d=" M3645 1300c6 0 26-3 30 0l5 10c5 4 21 1 25 10l-5 5-5-10h-10l-5-5-10-5c-16-4-14 21-30 5Z" class="c1"/><path d=" m3645 1480 5-10c5-3 9 9 15 10h10c4 4-33 5-35 5Z" class="c2"/><path d=" M3645 4900c45 0 12 28 0 5Z" class="c2"/><path d=" M3645 5330c7 0 15-5 20 0 4 4 0 17-5 15-26-13 16-10-15-10Z" class="c1"/><path d=" M3645 5340h10l-5 5h-10Z" class="c2"/><path d=" M3655 1915c8 0 14-2 22-3 5-1 10 3 15 3 8 0 8-10 15-13 10-5 54-9 63 0 2 2-17 10-17 10-43 22-42 35-85 18-8-3-13-5-16-13Z" class="c3"/><path d=" M3657 2852c9 3 39 58 45 70 5 10 17 15 21 25 8 15 19 45 10 61-3 7-14-8-15-8-11-6-11 15-20 10-31-18-32-70-38-100-4-20-13-31-8-53Z" class="c1"/><path d=" M3655 4610v10l-5 5v-10Z" class="c2"/><path d=" M3655 4830c31 0-11 3 15-10l5 5-10 5c-2 6 14 11 10 15h-10c-6 1-11 14-15 10-5-5 0-13 0-20Z" class="c3"/><path d=" m3655 5020-5 5Z" class="c3"/><path d=" m3655 5120-5 5Z" class="c0"/><path d=" m3655 5280-5 5Z" class="c1"/><path d=" M3665 4475c16 10 13 53 10 70-2 9-8 16-10 25-1 7 1 25-3 20-10-9 4-31 6-40 7-25 0-49-6-73Z" class="c2"/><path d=" M3665 4490c0 3 5 75-5 65-6-6 0-51 0-60Z" class="c0"/><path d=" M3668 5042c31 10 28 36 35 33 15-5 1-32 10-42 8-7 24 1 32 5 7 4 20 28 15 35s-25-18-33 2c-4 9 12 32-7 30-13-1-12-19-22-25-2-2-35-16-33-18 6-10 15-7 3-19Z" class="c3"/><path d=" M3665 5240v10l-5 5v-10Z" class="c0"/><path d=" M3677 1023c42 0 23 72 16 77-14 10-28-31-21-70Z" class="c1"/><path d=" M3675 4420v10l-5 5v-10Z" class="c2"/><path d=" m3675 4970-5 5Z" class="c3"/><path d=" m3685 5060-5 5Z" class="c1"/><path d=" M3695 810c8-16 11-6 25-15 5-3 5-12 10-15l5 5-10 5c-5 3-5 12-10 15-6 4-15 0-25 10Z" class="c1"/><path d=" M3697 1252c30-6 60 30 51 31-14 3-21-21-35-23-7-1-9 10-15 13-5 4-3-15-3-18Z" class="c1"/><path d=" m3695 2480-5 5Z" class="c1"/><path d=" M3695 4120c10 20 26 2 30 15 6 19-13 4-20 15-4 5-1 21-10 25l-5-5 10-5v-10c2-6 13-6 10-15-6-18-20 10-20-15Z" class="c2"/><path d=" M3695 4140h10c4 4-9 9-10 15v10c-4 4-5-10-5-15Z" class="c0"/><path d=" m3695 5230-5 5Z" class="c1"/><path d=" M3695 5310c0 13-5 43-5 5Z" class="c2"/><path d=" M3705 1178c6-14-3-54 7-63 1-1 32 50 35 55 7 14 6 29 11 43 8 18 20 40 34 54 4 4 24 9 18 20-4 7-15 8-22 3-10-8-21-37-40-50-24-16-54-16-46-53Z" class="c1"/><path d=" m3705 2450-5 5Z" class="c1"/><path d=" M3707 4202c17-4 29-2 45 5 44 17 19 22 38 51 4 6 26 12 23 20-1 6-37 26-40 24-1-2 27-18 25-27-3-14-21-6-26-17-4-7-1-11-2-18-6-32-43-29-65-37Z" class="c2"/><path d=" M3708 4212c58-15 55 48 64 55 6 4 19 1 21 10 3 7-51 43-60 35-8-9 3-20 2-30-1-9-4-19-7-27-4-15-18-22-21-38Z" class="c0"/><path d=" M3705 4620c16 0 10-2 5 5l-5 10-5-5Z" class="c3"/><path d=" M3705 4900c14-29 20 35-5 10Z" class="c3"/><path d=" M3705 5300h10v10c4 15 21 26-5 35-17 6-10-29-10-40Z" class="c1"/><path d=" m3715 790-5 5Z" class="c2"/><path d=" m3715 970 5-10v-10c4-4 5 10 5 15 0 6 3 26 0 30l-10 5-5 5c-3-3 0-26 0-30Z" class="c1"/><path d=" m3715 4090-5 5Z" class="c2"/><path d=" M3715 4350c7-15 2-16 15-25l5-5-5 5c-4 6-1 14-5 20-3 5-11 6-15 10Z" class="c2"/><path d=" m3715 5330-5 5Z" class="c3"/><path d=" m3725 2550-5 5Z" class="c2"/><path d=" m3725 4520 5 10 5 5c-6 6-12-2-15-5Z" class="c3"/><path d=" M3727 4708c3-4 29-34 28-36-4-11-21-10-13-25 2-5 42-36 48-37 9-2 11 2 20-2 10-4 1-12 3-15 1 0 15 7 20 4 4-2-1-23 0-22 7 4 5 12 15 10 15-3 51-14 64-2 9 9-33 16-39 20-15 13-16 41-26 47-5 3-13-3-19 2-7 6-28 37-16 45 14 9 50-21 65-25 17-6 50-5 68-2 22 4 17 27 28 42 9 10 29 20 30 35 2 15-24 31-15 46 13 20 53 20 72 15 9-2 12-11 20-13 12-4 40 7 52 12 11 4 25 1 35 8 7 6 8 16 13 23 5 8 15 13 20 20 7 11 14 58 15 72 2 19-23 11-28 25-5 13 5 36-10 45-8 4-32-13-27 8 2 7 30 49 35 50 7 2 15-6 22-3 2 1 5 6 1 8-22 11-43-6-63-8-18-2-40 27-57 15-10-8-6-23-13-33-3-5-40-38-45-40-27-11-37 21-60 18-5-1-25-21-25-25 0-3 4-12 3-15l-5-5c-9-4-10 8-18 10-4 1-11-12-15-13-8-4-19-2-25-10l-20-30c-5-8-3-26 10-22 22 6 16 30 22 45 5 12 34 28 41 10 13-31-7-36-13-47-3-5 6-17 5-23-1-11-13-34-22-40-17-11-21 15-30 10l-30-20c-6-5-7-17-15-20-11-4-6 29-15 33-21 11-6-21-25-23-13-2-6 31-10 38-3 7-34 6-38-1-8-14 16-42 15-57-2-21-38-5-27-17 10-9 68-16 62-41-7-34-49-14-58-19-3-1-5-16-9-20Z" class="c3"/><path d=" M3745 1080c0 13-5 43-5 5Z" class="c1"/><path d=" m3745 1120-5 5Z" class="c1"/><path d=" m3745 3630-5 5Z" class="c2"/><path d=" M3745 4710h10l-5 5h-10Z" class="c1"/><path d=" m3755 760-5 5Z" class="c1"/><path d=" M3757 1848c9-9 21-6 31-13 8-5 12-13 22-15s87 8 83 18c-3 10-39 16-48 19-9 2-73 24-75 23-8-2-5-20-12-27Z" class="c3"/><path d=" M3755 2050c8-16 11-6 25-15 5-3 5-12 10-15 5-2 9 11 5 15-5 5-14 1-20 5-11 8-4 15-20 15Z" class="c2"/><path d=" m3755 3570-5 5Z" class="c0"/><path d=" M3755 3618c9-22 48-48 50-65 2-12-22-5-20-13 4-19 47-38 53-60 9-30-22-17-33-33-3-5 29-23 30-34 1-8-11-8-13-15-3-10 13-37 16-48 3-9 11-25 10-35-1-9-7-12 0-20 20-23 14 8 34 10 13 2 6-40 25-30 12 6 26 31 38 33 12 3 18-13 28-1 8 9 27 49 32 51 7 3 37-4 38-1 6 10-3 25 12 31 12 5 26-2 35 10 8 12-3 21-5 32-1 7 2 11-2 18-9 20-57 25-73 49-11 16-5 37-20 50-16 14-41 10-57 26-7 8-6 17-10 25-5 11-20 11-25 24-3 9 8 21-1 28-21 15-33-2-49-10-5-3-14 3-20 0-8-4-11-14-23-13-26 2-35 33-47 36-13 5-7-32-6-36Z" class="c1"/><path d=" m3755 3670-5 5Z" class="c2"/><path d=" M3755 3678c6-4 29-22 37-15 12 12 2 118-27 137-2 1 1-4 2-7 4-13 3-2 3-18 0-64-7-41-18-88Z" class="c0"/><path d=" M3755 4050h10l-5 5h-10Z" class="c2"/><path d=" m3755 4310-5 5Z" class="c2"/><path d=" m3755 4320-5 5Z" class="c3"/><path d=" M3767 2478c1-9 2-18 6-26 7-12 48-63 59-69 12-6 25-1 38-5 12-3 19-14 30-20 11-5 23-6 33-11 49-25 36-37 42-45 7-10 59-10 70-12 9-2 16-8 25-10 10-2 20 1 30 0s17-7 27-8c7-1 14 5 21 3 10-2 17-7 27-5 9 2 16 8 25 10s60 10 63 7c16-12-7-28-16-34-13-7-27 5-39-3-9-7-17-25-23-35-3-4 10 4 15 3 6-1 9-8 10-13 3-15-13-55-10-85 2-15 7 22 22 25 13 3 47-11 55-22 1-2 3-99 41-118 21-11 11 47 35 32 8-5 6-18 10-25 3-5 9-8 12-14 2-4-1-9 0-13 1-7 14-5 18-8 17-13 17-31 47-37 19-3 40-1 58-5 9-2 13-9 22-10 15-2-2 2 15 3 7 1 25-13 28-1 3 8-10 14-13 20-5 9 12 40 18 46 8 8 54 10 70 19 8 3 10 14 15 20 6 5 17 7 20 15 6 11 0 26 2 38 3 18 44 53 60 63 41 28 49 15 90 22 9 2 16 8 25 10 29 5 42 9 67 25 1 1 11 4 13 7 3 5-1 13 3 20 7 10 58 57 60 65 5 14-13 25 12 31 19 6 28-5 45-8 22-4 149-5 168 2 17 5-35 3-53 3-9 0-41-5-45 7-3 7 37 14 43 13l17-5c15-1 40 15 65 10 28-5-16-18 10-20 22-2 77 16 97 27 9 5 13 17 23 21 38 16 43 27 65 60 7 11 6 3 12 14 4 9-4 14-5 23-2 14 16 13 18 25 3 16 3 40 13 53 7 9 16 4 24 10 6 6 30 43 28 52-5 17-26 3-35 0-16-5-42-19-58-15-6 1-10 6-17 5-13-1-56-20-68-15-28 12 113 137 108 143-6 8-33-8-38-11-12-8-26-16-37-25-12-11-18-25-28-35-9-9-65-56-72-57-14-3-41 17-52 7-10-11 23-11 22-20-2-14-32-28-45-27-29 3 25 27-10 30-40 4-63-57-95-48-14 4-15 10-15 23 0 2-4-2-5-3-9-13-13-28-27-37-18-12-46-46-55-52-17-10-16 23-36 5-7-5-9-14-15-20-6-5-17-7-20-15-7-12-4-22-19-30-7-3-29-8-33 4-2 4 10 11 10 11-2 2-76 3-85 2-12-1-22-9-35-10-15-1-25 10-40 2-12-7-4-36 3-44 5-5 56 11 42-16-7-14-30-12-42-19-20-11-47-35-73-33-14 1-32 25-55 32-4 1-9 8-12 5-2-3 19-16 10-24s-24 0-35-8c-10-8-9-23-20-30-14-10-32-17-46-27-19-12-31 24-40 17s1-34 3-42c1-6-19-49-23-48-17 6 7 69 1 88-2 9-9 17-16 22-9 6-18 3-27 5-15 3-27 17-42 18-13 2-30-7-43-8-18-2-39 15-65 10-14-3-66-30-85-28-9 1-16 7-25 8-23 2-48-4-70 0-42 8-97 39-127 68-9 9-40 35-33 50 9 21 75 1 88-8 4-2 7-9 12-10 9-2 6 2 15 3 2 1 41-18 48-21 9-4 35-16 40 0 3 8-15 9-18 10-17 4-33 15-50 18-13 2-26-3-38 5-26 17-57 51-70 60-16 10-47 17-64 33-6 6-9 25-18 27-13 3 5-32 5-35 2-14 6-69-7-77l-8-1c-10 1-14 10-22 15-8 4-18 3-26 8-11 7-21 21-30 30Z" class="c3"/><path d=" M3765 2830v10l-5 5v-10Z" class="c1"/><path d=" M3767 3818c20-20 84-40 111-26 5 2 0 13 2 16 5 11 20 11 27 22 7 14-5 26 3 38 5 8 37 27 30 39-4 7-17 7-20 15-2 3 2 8 0 11s-36 8-40 7c-32-9 35-41-7-62-10-5-32-14-43-13-15 1-57 26-68 3-6-12 7-27 5-41Z" class="c1"/><path d=" M3765 3830v10l-5 5v-10Z" class="c2"/><path d=" M3767 3893c9 0 22 5 26 14 9 17-16 22-13 36s30 16 30 22c0 9-8 13-10 22-3 15 3 22-13 33-3 2-10 5-14 2-11-12-2-52-3-67-2-21-12-33-8-55Z" class="c0"/><path d=" M3765 4030h10l-5 5h-10Z" class="c2"/><path d=" m3765 4660-5 5Z" class="c1"/><path d=" M3765 4940c2 4 15 20 10 25l-5-5c-13-9-10 1-10-15Z" class="c3"/><path d=" M3767 5342c16-13 18-39 35-49 15-8 71-24 51 15-4 9-14 5-21 10-17 13-29 38-67 25Z" class="c1"/><path d=" M3775 738c38-37-12 13 15 10 18-1 35-28 35-43 0-5 10 5 15 5 4 0 26-10 23-2-3 11-76 56-76 55-7-1-11-13-12-18Z" class="c1"/><path d=" M3775 3510c4-8 1-24 5-30l10-5c5-7-6-11 5-15 14-5 27 24 20 35-11 17-31 2-40 20Z" class="c0"/><path d=" m3775 3570-5 5Z" class="c0"/><path d=" M3775 5250c7 0 14-4 20 0 3 2 14 21 10 25-7 7-35-3-35-20Z" class="c0"/><path d=" M3785 4690v10l-5 5v-10Z" class="c1"/><path d=" m3785 5060-5 5Z" class="c3"/><path d=" M3795 910v10l-5 5v-10Z" class="c1"/><path d=" M3795 1090c3 5 8 9 10 15 3 10-6 31 0 40l10 5-5 5-5 10-5-5-10-5c-7-10 0-48 0-60Z" class="c1"/><path d=" M3795 2560c7-15 2-16 15-25l5-5c5 5-9 54-10 55-12 12-15-12-15-15Z" class="c3"/><path d=" M3797 5012c13 3 29 14 33-7 2-14-2-26-12-35-1-1-16-15-15-17 8-8 57 42 35 60-14 13-28 11-43 0Z" class="c3"/><path d=" M3797 5042c43-9 63 71 75 100 2 5 4 22 0 18-5-5-12-36-20-47-11-14-50-58-57-68Z" class="c2"/><path d=" m3805 3150-5 5Z" class="c1"/><path d=" M3805 3220c9 18 13 14-5 5Z" class="c0"/><path d=" m3805 3410-5 5Z" class="c0"/><path d=" M3815 3730v10l-5 5v-10Z" class="c1"/><path d=" M3815 4890c25 0-4 3 15-10 6-4 14 2 20 0 6-1 11-14 15-10s-9 9-10 15v10c-2 3-12 5-15 10l-5 10c-5 3-9-9-15-10h-10v-10Z" class="c3"/><path d=" M3825 2020c15 0 10-15 25-10 4 1 9 11 5 15-3 3-26 0-30 0Z" class="c2"/><path d=" M3825 3170c0 20 5 19 10 35 1 4 3 37 0 40-6 6 0-18-5-25l-10-5c-4-6 0-32 0-40Z" class="c1"/><path d=" M3825 3250v10l-5 5v-10Z" class="c0"/><path d=" M3825 3330v10l-5 5v-10Z" class="c0"/><path d=" m3825 3650-5 5Z" class="c1"/><path d=" m3825 3930-5 5Z" class="c1"/><path d=" m3835 690 5-10 5 5c-3 5-11 6-15 10Z" class="c2"/><path d=" m3835 3680-5 5Z" class="c1"/><path d=" m3845 690 5-10 5 5c-3 5-11 6-15 10Z" class="c1"/><path d=" m3845 4950-5 5Z" class="c3"/><path d=" M3855 3170c0 13-5 43-5 5Z" class="c0"/><path d=" M3868 672c9-9 21-11 30-17 24-16 34-44 54-63 2-3 28-30 30-29l-2 4c-11 25-20 20-37 36-6 7-8 17-13 24-14 20-39 39-62 46Z" class="c1"/><path d=" M3865 900c7-15 2-16 15-25l5-5c9 9-8 27-10 35-2 6 5 15 0 20-12 12-15-12-15-15Z" class="c1"/><path d=" m3865 2360-5 5Z" class="c3"/><path d=" M3867 3228c1-9 0-28 6-35 6-5 21 18 32 17 40-4 14-38 20-48 5-8 15-4 13-17-1-13-18-25-16-38 1-10 7-17 8-27 1-16-3-34 0-50 2-12 19-12 20-25 1-10-7-17-8-27-2-12 27-81 38-83 3-1 15 31 15 35 0 3-16 40-2 35 21-7 24-60 27-75 2-9 11-11 17-17 12-12 18-31 28-45 14-18 41-13 58-21 6-3 10-9 15-12 5-2 15 1 20 0 6-1 10-6 17-5s16 9 23 5c13-6 22-24 34-32s29-11 40-21c3-3 7-13 8-17 1-3 0-12 3-10 8 5-1 6 9 10 10 5 19-16 26-20s9 8 14 10c7 3 16-8 20-13 3-6-8-33-9-34-7-6-8-1-16-5l-32-26c-7-10-44-114-45-127-7-79 71-126 140-135 12-1 22 7 35 5 14-3 25-17 40-15 28 4 52 32 77 42 17 7 17-21 31-14 9 4 13 13 20 19 19 14 27 14 34 38 2 8 9 16 8 25s-8 17-10 25c-2 9 1 18-5 27-5 8-34 56-35 63-2 10 1 20 0 30-2 26-29 12-5 48 5 8 16 12 20 20 2 4-3 15 2 19 8 5 14-6 21-2 3 2 6 12 7 13 10 15 32 37 47 47 11 8 25 2 36 8 6 4 13 25 20 22 12-4 3-34 24-20 11 7 26 34 50 50 9 6 18 3 28 5 6 1 46 32 48 37 5 8 0 19 2 28 4 20 4 39 0 60-2 9-8 16-10 25-1 7 2 11-2 18-3 6-32 25-8 30 26 6 32-33 35-48 2-9 8-16 10-25 2-12-8-58 7-63 8-3 65 109 81 68 4-8 2-11-1-18-4-7-48-68-54-74-14-14 2 4-15-8-9-7-24-37-10-45 15-8 42 37 49 40 15 8 0-20 16-12 11 6 3 5 14 12 10 7 23 4 33 13 14 13 18 32 33 44 10 7 23 6 30 15 8 9 10 21 17 31 3 5 30 38 33 37 17-6-16-75-10-82 7-7 16 13 22 15 16 7 45 6 62 17 13 9 39 40 51 47 28 15 15-18 25-29 8-7 23 10 27 15 19 29 9 22 7 47-1 5 6 14 1 18-5 6-8 5-11 12-4 9 7 23 1 28-16 16-27 24-40 49-6 13-7 40-21 48-13 7-21-28-34-30-17-2-12 34-20 40-5 4-12-5-16 5-2 5 0 11-4 15 0 1-13-25-28-23-10 1-14 10-22 15s-17 2-25 10-10 20-21 28c-8 5-18 3-25 8s-8 18-10 25c-6 20 9 21 18 35 5 7 7 17 13 24 18 18 47 14 65 30 7 5 9 14 15 20 5 4 18 7 20 15 5 14-41 10-46 13-9 4-16 23-17 32-1 10 8 9 10 18 1 5-8 41 13 27 5-3-1-13 4-15 8-4 17-3 25-10 4-5 7-18 15-20 17-6 0 63-5 70-18 21-48-12-64 10-3 4-17 43-16 43 6 2 13-4 18 3 2 3 11 47 10 49-12 23-41 9-53 28-8 11-4 19-7 30-3 9-14 19-18 28-6 12-5 23-9 35l-6 17c-1 8 8 16 6 23 0 4-14 1-16 2-13 3-20 15-30 20-15 8-13-22-25-20-10 1-15 21-22 20-3-1-11-9-12-10-23-26 19-72-18-75-43-4-24 13-43 35-8 9-20 17-27 27-2 2-16 35-18 33-4-2-5-11-7-13-6-9-58-49-63-47-21 9 21 29 5 40-27 19-30-4-44-10-7-3-34 7-36 15-6 24 35 26 45 38 3 5-4 62-10 69-17 17-24-25-40-14-10 7 18 49-4 55-25 8-66-69-95-73-4-1-4 6-3 8 6 12 46 62 0 57-10-1-11-12-15-18-7-10-19-18-27-27-7-8-6-15-10-25-2-7-34-31-40-23-11 14-1 42 9 53 23 27 12 35 50 60 15 10 25-3 40 0 12 3 49 16 55 27 5 8 6 34-7 38-12 4-43-36-50 0-7 38 33 47 47 63 7 10-11 20-12 29-1 6 10 10 13 15 6 6 10 15 14 23 6 12 4 34 11 43 14 16 0-28 34-28 4 0 8-2 11 0 5 3-11 13-11 13-8 8-8 16-4 25 16 32 69 83 42 124l-13 13c-6 3-13-3-19 2-1 1-4 8-8 8-5 0-42-25-40-7 3 22 53 46 60 55 9 13 31 66 42 67 13 2 6-47 13-57 10-14 27 18 43 7 22-15-5-31 7-47 15-20 54-20 75-30 12-5-3-15 18-23 10-4 37-2 40-15 2-8-7-15-6-23 1-10 11-15 15-24 4-8 15-54 13-63-4-21-27-37-30-55-2-10 9-25 5-33-5-12-23-2-25-17-2-17 19-24 20-40 1-11-21-23-12-30 6-4 11-3 17-5 75-22 50-4 100 0 10 1 21-2 30 0 4 1 9 3 8 8-1 13-8 23-8 37 0 10 7 21 5 32-4 19-12 24-20 40-10 20 25 4 28 5 5 1-6 32-8 35-9 14-57 47-60 55-3 6 4 13-3 18s-27 2-27 13c0 24 20 28 37 19 3-2 45-43 46-35 4 16-17 25-11 45 11 37 33 45 33 63 0 11-14 0-18 10-5 9 1 9-5 17-12 13-30 28-45 38-14 9-31 1-44 13-17 18-11 41-21 60-8 13-32 7-35 22-3 13 37 11 21 18l-8 2-8 3c-28 14-17 28-30 44-10 11-28 12-32 30-4 19 24 13 32 21s-13 12-12 20c1 11 12 13 13 24 1 7-7 16-8 23-2 10 1 19-2 28-7 26-41 38-38 72 1 16 10 19 17 32 9 17-3-1 5 18 1 4 14 11 13 15-2 11-21 23-27 33-7 14-25 53-36 62-7 5-39 9-40 15-2 8 7 17 8 25 1 11-9 23-10 35-2 23 4 48 0 70-4 19-24-6-28 10-7 25 39 19 13 42-22 19-37-4-60-2-16 1-52 18-70 20-27 2-57-12-55-13 7-7 35-9 47-20 24-24-19-29-34-32-9-2-34 4-40 12-9 12 12 31 4 40-8 8-27 2-37 5-13 3-35 18-48 16-17-2-23-30-30-41-9-14 0-5-14-14-3-2-10-3-8-6 8-12 18-9 13-27-6-25-52-46-36-78 10-21 15 30 33 31 5 1 74-18 78-21 13-9 8-34-1-44-10-9-37-3-40-15-3-9 21-9 25-15 6-8 4-28 3-38-3-32-28-27-38-47-10-18 2-48-2-68-4-21-27-37-30-55-5-26 10-42-2-70-11-29-30 28-50 15-31-21-45-64-38-100 3-17 14-33 18-50 3-10 0-19 5-28 3-5 9-8 12-14 7-13-21-23-12-35 5-6 16-9 24-11 41-13 24 34 46 50 8 5 73 7 77-37 2-19-55-68-68-65s-15 25-29 18c-7-4-40-22-30-35 10-11 57-34 72-33 25 2 43 41 55 58 9 13 37 15 52 17 13 1 30-33 40-43 7-8 41-19 33-35-9-18-31-5-42-15-5-6 18-21 17-32-2-20-28-26-30-45-3-28 50-51 38-80-10-26-48 6-53-2-7-11 62-19 28-45-19-14-106 8-108 5-2-2 3-13 3-13 17-29 113 9 97-23-9-18-24-4-37-7-8-2-8-6-18-5-11 1-21 14-33 8-17-8 12-21 8-31s-17-5-25-7c-9-2-9-12-17-15-13-6-27 35-40 22-10-10 19-32 12-45-10-21-39-3-52-15-10-11 1-32-8-45-5-8-15-13-20-20s-7-17-13-24c-9-8-22-9-22-23 0-13 38 9 27-18-6-15-4-3-12-15-20-30-4-7-28-14-18-5-50-70-65-80-9-5-14-1-22-3-10-3-49-34-55-43-8-13-5-30-12-44-6-12-31-22-28-35 4-19 3 4 5-18 1-14-2-24 8-35 30-34 53-20 95-83 4-5 9-8 12-14 5-9-34-85-43-95-6-5-17-7-20-15-7-13-3-26-14-43-5-9-12-13-23-8-7 3-11 24-15 23-16-3-23-29-40-33-12-4-20 6-32 3-9-2-17-7-28-5-6 1-17 10-23 8-14-4-27-46-44-55-28-14-78-8-95-25Z" class="c0"/><path d=" m3865 3960-5 5Z" class="c1"/><path d=" m3865 4780 5-10c8-4 30 38 25 45-2 3-21 14-25 10-1-1 0-25-10-35Z" class="c1"/><path d=" m3875 660-5 5Z" class="c2"/><path d=" M3885 650c6-12 14-10 20-20l5-10 5 5c-3 5-12 5-15 10-9 13 2 20-15 20Z" class="c0"/><path d=" m3885 3060-5 5Z" class="c1"/><path d=" m3885 3160-5 5Z" class="c1"/><path d=" M3885 3480c31 0 9-1 25 10 5 4 21 1 25 10l-5 5-5 10c-9 6-39-1-45-10-4-6 0-13 0-20Z" class="c2"/><path d=" M3885 5045c12 8 29 24 37 37 5 9 9 57-4 61-20 7-8-53-10-58-7-18-31-13-26-38Z" class="c2"/><path d=" M3885 5340c33-67-25 45 15-15 5-7-6-11 5-15 15-5 8 2 10 10 1 6 14 11 10 15h-10l-10 5-5 5c-6 2-13 0-20 0Z" class="c2"/><path d=" M3897 1502c48 12 51 47 76 80 7 8 46 26 37 41-7 11-29 8-38 15-8 6-3 18-9 22-7 6-46-20-50-27-9-16 8-27 7-43-1-13-15-20-18-32-3-9 0-18-2-28-1-8-6-15-8-23Z" class="c3"/><path d=" M3895 2108c35-35 39-58 60-80 8-8 16-19 27-25s22-3 30-16c1-3 5-11 3-15-4-10-15-3-20-9-2-2 27-29 32-31 23-12 91 40 110 53 8 6 80 9 66 53-4 16-20 23-30 35-5 7-10 25-18 27-11 3-16-16-28-10-10 5-8 15-15 22-7 5-13-5-20-2-16 7 14 33 13 45-3 29-27 1-37 17-5 8 9 23-1 28-8 4-24-5-32-5-18 0-29-7-45-8-17-2-27 11-55-30-5-8-3-18-8-25-10-13-30 1-35-15Z" class="c0"/><path d=" M3895 2440c10-21 19 5 0 5Z" class="c1"/><path d=" M3895 3130h10c3 2 22 31 5 20-15-10-7 2-15-15Z" class="c0"/><path d=" m3895 3840-5 5Z" class="c2"/><path d=" M3905 640c33-67-25 45 15-15 3-4 1-19 5-15 10 10-21 31-25 35Z" class="c2"/><path d=" m3905 4870-5 5Z" class="c3"/><path d=" M3925 5000v10l-5 5v-10Z" class="c3"/><path d=" m3925 5030-5 5Z" class="c3"/><path d=" m3935 600-5 5Z" class="c0"/><path d=" M3935 3830c16 0 6-3 15 10 10 15-15 5-20 0Z" class="c1"/><path d=" M3935 5350c4 9 19 18 20 20 2 5-11 8-15 5-5-3-6-11-10-15Z" class="c2"/><path d=" m3945 2310-5 5Z" class="c3"/><path d=" M3945 4800c16 0 10-2 5 5l-5 10-5-5Z" class="c1"/><path d=" M3945 5300c7-14 4-27 25-20 5 2 8 11 5 15-6 9-19 6-25 10-11 7 1 16-10 5Z" class="c2"/><path d=" M3987 602c9-8 12-20 21-27 5-3 18-4 17-13 0-3-12-19-12-19 2-2 25 13 27 15 3 5-36 31-40 39-5 9 7 10 10 15 2 2-13 8-15 8-7 0-9-10-10-15Z" class="c1"/><path d=" M3985 5230c7 0 15-5 20 0 4 4 0 17-5 15-26-13 16-10-15-10Z" class="c3"/><path d=" m3995 4160-5 5Z" class="c2"/><path d=" M3995 5040c0 11-1 10 5 20l5 5c-12 12-15-12-15-15Z" class="c3"/><path d=" M4005 600c6-12 14-10 20-20l5-10 5 5c-3 5-24 8-20 20l10 5-5 5-5-10c-5-2-12 7-15 10Z" class="c2"/><path d=" M4005 670c16 0 10-2 5 5l-5 10-5-5Z" class="c1"/><path d=" m4015 600-5 5Z" class="c0"/><path d=" m4025 590 25-30c4-3 17 0 15 5 0 1-32 30-45 30Z" class="c0"/><path d=" M4025 2490c16 0 10-2 5 5l-5 10-5-5Z" class="c2"/><path d=" M4035 530c38 0 8 5-5 5Z" class="c1"/><path d=" m4035 600-5 5Z" class="c1"/><path d=" M4035 3930c38 0 8 5-5 5Z" class="c1"/><path d=" M4035 5200c17 0 27 28 20 35-1 1-28 1-25-5l10-5c4-6-3-16-5-20Z" class="c3"/><path d=" M4045 590c1-2 18-22 20-20s-5 10-10 15c-4 4-11 6-15 10Z" class="c2"/><path d=" M4047 5178c29-29 77 29 66 60-1 5-5-7-8-11-11-17-39-47-58-47Z" class="c3"/><path d=" m4055 3980 5-10c4-3 37 3 35 5h-10l-10 5-5 5c-6 2-13 0-20 0Z" class="c1"/><path d=" m4055 4998 13-13c5-2 15 1 20 0 7-2 31-23 35-8 4 12-27 10-23 26 2 10 34 32 18 40-25 13-19-64-65-41Z" class="c1"/><path d=" M4065 540c4 0 27-3 30 0s-20 20-20 20c-4 5-1 21-10 25l-5-5 10-5c5-8-5-20-10-25Z" class="c1"/><path d=" M4065 5270v10l-5 5v-10Z" class="c2"/><path d=" M4077 522c31-7 81-23 83-20 3 2-5 5-8 6-20 11-55 23-77 15Z" class="c1"/><path d=" m4085 2490-5 5Z" class="c3"/><path d=" M4085 4720v10l-5 5v-10Z" class="c3"/><path d=" M4095 870c6-11-1-31 5-40l10-5c5-7-6-11 5-15 28-9-1 32 0 35l10 5c3 6-26 25-35 25Z" class="c1"/><path d=" m4095 920 5-10v-10c2-2 8 31 5 35l-10 5-5 5c-5-5 0-13 0-20Z" class="c1"/><path d=" M4095 2040h10l-5 5h-10Z" class="c2"/><path d=" M4095 2050c11 22 16-4 20 0l-5 5-5 10-5-5-10-5Z" class="c1"/><path d=" m4095 2060-5 5Z" class="c2"/><path d=" m4095 4010-5 5Z" class="c1"/><path d=" M4095 4630c26 0-5 31-5 5Z" class="c3"/><path d=" m4105 2050-5 5Z" class="c3"/><path d=" m4105 2120-5 5Z" class="c1"/><path d=" m4105 2430-5 5Z" class="c2"/><path d=" M4105 2990c1-4 4-31 13-28 7 2 15 58 19 68 2 7 6 8 13 10 3 1 12 1 10 3-6 6-16 1-22 9-5 7-3 17-8 25-7 10-7 2-10 15-2 6 7 14 2 20-6 5-17 4-20-4-3-4-2-13-2-18 0-28 22-4 20-30l-17-62Z" class="c2"/><path d=" M4105 4660c26 0-5 31-5 5Z" class="c3"/><path d=" M4105 4700c7 0 15-5 20 0 4 4 0 17-5 15-26-13 16-10-15-10Z" class="c3"/><path d=" m4115 2060-5 5Z" class="c3"/><path d=" m4115 2070 5-10v-10l5 5c4 13-8 13-15 20Z" class="c2"/><path d=" M4115 2130v10l-5 5v-10Z" class="c1"/><path d=" M4115 5150h10l-5 5h-10Z" class="c2"/><path d=" M4125 4300h10c5 5-15 45-15 10Z" class="c0"/><path d=" M4135 1860c4-8 1-36 5-40s2 11 5 15 32 23 20 40l-10 5c-16 11-14 1-25-10Z" class="c2"/><path d=" M4135 4380c31 0-11 3 15-10 4-2 17 13 15 20-2 6-31 9-35 5v-10Z" class="c2"/><path d=" m4135 4830-5 5Z" class="c1"/><path d=" M4145 2120v10l-5 5v-10Z" class="c1"/><path d=" M4145 4748c7-5 68 3 65 17-6 32-75 24-68-8Z" class="c3"/><path d=" M4145 4950c25 0-4-3 15 10 4 3 19 1 15 5-5 5-31-1-35-5Z" class="c1"/><path d=" M4155 5440h10l-5 5h-10Z" class="c2"/><path d=" M4165 2120c8-16 10-7 10 5 0 16 3 6-10 15-11 8-5-5-5-15Z" class="c0"/><path d=" m4175 490-5 5Z" class="c2"/><path d=" m4185 490-5 5Z" class="c1"/><path d=" m4195 480-5 5Z" class="c2"/><path d=" M4195 5350c10-21 19 5 0 5Z" class="c0"/><path d=" m4205 480-5 5Z" class="c1"/><path d=" M4217 472c27-21 182-71 193-60 2 2-7 3-10 3-14 1-23 1-37 7-16 6-35 8-51 16-9 5-14 12-24 15-14 5-32 3-45 9-9 3-17 11-28 11Z" class="c1"/><path d=" M4215 740c8-16 21-7 20-5l-10 5c-4 6 1 27-10 5Z" class="c1"/><path d=" m4215 3560 5-10 5 5c-3 5-11 6-15 10Z" class="c2"/><path d=" m4215 5280-5 5Z" class="c1"/><path d=" m4225 490-5 5Z" class="c1"/><path d=" M4225 5090v10l-5 5v-10Z" class="c3"/><path d=" M4235 2070c0 13-5 43-5 5Z" class="c2"/><path d=" m4235 3760-5 5Z" class="c0"/><path d=" m4235 4840-5 5Z" class="c3"/><path d=" M4245 760c10-21 19 5 0 5Z" class="c1"/><path d=" m4245 5450-5 5Z" class="c2"/><path d=" M4255 1590c2-5 3-28 5-30 3-3 23-1 25 5 2 5 3 36 0 40l-10 5c-3 4 0 17-5 15-11-6-5-22-20-30Z" class="c1"/><path d=" M4255 5120c8 15 14 11 20 20 4 6-2 14 0 20 1 6 14 11 10 15-3 3-23 1-25-5-7-21 5 0 10-15 3-9-8-9-10-15v-10l-10-5Z" class="c3"/><path d=" M4258 5362c13-3 20 8 32 6 1 0 10-5 13-3 8 6 3 65-15 55-8-5-24-43-31-53Z" class="c1"/><path d=" m4275 710-5 5Z" class="c1"/><path d=" M4275 2350c14-28 38 5-5 5Z" class="c3"/><path d=" M4275 4200c12-37 4-14 22-37 10-13 6-36 21-48 14-10 99-12 84 18s-55 22-79 40c-22 18-11 45-26 57-16 12-25-7-25-20Z" class="c0"/><path d=" M4275 5260v10l-5 5v-10Z" class="c2"/><path d=" m4285 758 47-51c6-11 8-22 16-32 11-12 56-40 57-42 4-11-24-7-28-10-10-4 20-14 18-21-4-13-35 0-33-15 1-15 67-55 63-65-8-26-66 36-53-5l3-9c7-9 22-11 32-16 11-6 21-24 33-27 13-4 17 1 28-10 25-24-15-11-16-17-2-7 7-15 6-23 0-1-5-10-3-13 5-8 24 5 30 6 56 16 53-15 113 34 6 4-16-4-18-5-10-5-19-19-30-20-9-1-36 8-43 13-7 4-14 15-9 23 3 5 61-23 55-5-3 10-25 3-23 15 1 12 17 15 7 27-9 10-20 13-30 20-15 10-57 52-57 53 5 38 55 0 70-3 10-2 19 1 28-5 8-5 12-16 20-20 9-4 22 6 32 3 3 0 22-16 23-11 6 26-52 32-55 35-31 26-67 45-101 68-9 5-43 19-37 33 7 16 41 5 52 0 1 0 18-11 20-10 2 2-51 30-12 37 38 7 73-23 110-20 3 0 12 1 10 3-10 10-47 10-60 12-9 2-16 8-25 10-40 7-81-4-120 22-10 6-24 18-32 26-8 9-9 23-20 29-9 4-31-32-36-7-3 11 28 46 16 55-20 15-57-27-51-53Z" class="c1"/><path d=" m4305 430-5 5Z" class="c2"/><path d=" M4307 488c8-11 20-25 31-33 10-6 75-31 82-23 1 1-31 17-33 18-14 5-15 13-25 22-6 4-44 18-54 21Z" class="c1"/><path d=" m4325 3120-5 5Z" class="c2"/><path d=" M4325 5030c3 5 8 9 10 15 0 1 1 33-5 15-5-15 8-16-10-25Z" class="c3"/><path d=" m4335 420-5 5Z" class="c2"/><path d=" m4335 720-5 5Z" class="c3"/><path d=" M4335 3140c13 0 16-17 20-5 6 19-13 4-20 15-3 4-1 19-5 15-5-5 0-13 0-20Z" class="c2"/><path d=" m4335 5320-5 5Z" class="c0"/><path d=" M4345 3070v10l-5 5v-10Z" class="c2"/><path d=" M4345 3300h10l-5 5h-10Z" class="c2"/><path d=" M4355 2918c13-9 27-14 37-26 4-6 10-25 18-27 10-2 3 25 2 28l-47 37c-7 2-7 0-10-5Z" class="c2"/><path d=" m4355 3110-5 5Z" class="c2"/><path d=" M4355 5270c2-5 36-42 40-40l5 10c10 14-12 10-20 15-10 7-9 20-30 20Z" class="c0"/><path d=" m4365 410-5 5Z" class="c2"/><path d=" M4365 2870h10c4 4-9 9-10 15v10c-4 4-5-10-5-15Z" class="c2"/><path d=" M4375 690v10l-5 5v-10Z" class="c3"/><path d=" M4377 782c17-13 18-40 40-50 14-7 94-25 108-22l17 7 18 6c-6 6-27 1-35 4-21 5-35 22-53 31-10 5-19-1-29 5l-13 14c-2 3 2 13 3 15 18 20 45 2 64 0 4-1 11 3 13 6 9 15-53 15-50 25 6 18 39 13 48 30 6 11 15 53 27 55 12 3 24-17 27-15 4 5-20 25-10 34 5 4 65-12 58 0-11 20-59 33-77 15-6-7-3-18-8-25-7-11-20-10-27-22-8-16 3-37-10-45-18-12-35 0-53 0-11 0-13-26-22-32-21-13-55 36-41-31Z" class="c1"/><path d=" m4375 3310-5 5Z" class="c2"/><path d=" m4375 4790-5 5Z" class="c1"/><path d=" m4395 3290-5 5Z" class="c2"/><path d=" M4415 620c10-21 19 5 0 5Z" class="c3"/><path d=" M4425 810c38 0 8 5-5 5Z" class="c3"/><path d=" m4425 3350-5 5Z" class="c2"/><path d=" M4437 658c23-31 85-57 120-76 7-4 9-13 15-17 1-1 64-10 56-40-4-17-26 9-33 10-9 1-15-7-23-5-13 3-18 16-29 22-9 5-18 2-28 5-11 3-55 34-60 8-1-5 14-11 17-13 9-7 72-64 73-69 2-10-8-10-10-18-1-5 21-6 23-15 3-10-10-16-18-15-9 1-30 20-38 15-11-7 41-32 51-27 47 24 22 46-10 70-10 8-12 21-21 29-8 6-16 2-24 10-4 4-16 23-3 26 8 2 19-7 25-10 13-6 30-7 42-16 10-9 26-23 33-34 4-6 6-19 13-23 8-5 20 11 27 13 5 2 22-1 25 4 2 3 0 7 0 11 0 38-27 35-47 50-23 18-41 33-68 44-20 8-12 33-23 45l-57 23c-8 2-19 0-27-2Z" class="c2"/><path d=" M4435 780c4-9 3-14 15-10 19 6-21 6 0 20 3 2 26 1 30 0 6-1 11-14 15-10l-5 5c-9 13 1 10-15 10-23 0-26 0-45-10Z" class="c2"/><path d=" M4437 5052c14-3 81 18 83 20 8 8-45 14-53 11-13-3-25-17-32-28Z" class="c2"/><path d=" m4445 600-5 5Z" class="c3"/><path d=" M4445 2930c7-14-2-39 5-50l10-5 5-5v10l5 10 5 5c6 18-10 0-10 35 0 17-12 21-20 5Z" class="c2"/><path d=" m4455 760-5 5Z" class="c3"/><path d=" M4457 778c11-11 26-9 40-16 10-6 18-17 30-20l53-14c12-3 36-19 48-16 6 1-5 10-8 15-3 4-20 52-20 56 4 36 59 45 52 60-4 9-13 13-19 20-6 9-10 24-20 29-9 4-14-4-23-5-12-2-9 8-17 13l-6-18c-9-11-18 13-25 8-2-1 8-26 8-30-1-11-14-21-8-33 5-10 42-23 21-39-33-24-82 1-105-5Z" class="c0"/><path d=" M4465 500h10l-5 5h-10Z" class="c3"/><path d=" m4465 610-5 5Z" class="c3"/><path d=" M4468 822c15-4 29-4 42-14 12-9-4-17 3-25 7-7 43 4 49 10 11 12-20 23-24 29-11 15 8 28 7 43-1 8-10 17-8 25 3 15 19-2 23-5 8-5-14 21-23 18-10-2-20-45-25-55-10-16-31-12-44-25Z" class="c2"/><path d=" M4465 4240c40 0 65 5-5 5Z" class="c0"/><path d=" M4477 762c15-12 34-28 53-32 7-1 25-1 20 3-5 5-19 2-25 4-18 5-29 26-50 26Z" class="c2"/><path d=" M4485 670c31 0-11 3 15-10l5 5c-2 5-22 3-5 15 7 5 31-1 25 5s-40 0-45-5Z" class="c2"/><path d=" m4485 3280-5 5Z" class="c2"/><path d=" M4497 548c4-21 17-12 30-25 12-12 14-22 30-31 17-10 16-40 38-42 18-2 29 2 42 15 2 3 17 13 13 18-10 14-32-19-43-13-11 5-18 27-27 37-23 23-50 36-82 46Z" class="c0"/><path d=" m4495 600-5 5Z" class="c3"/><path d=" m4495 730-5 5Z" class="c3"/><path d=" M4498 2672c21-5 23 5 39 13 5 2 12-3 16 2 7 6 32 32 30 41 0 3-6 1-8-1-10-14-21-29-37-37-24-12 3 41 2 43-2 4-42-48-43-56Z" class="c2"/><path d=" M4507 668c3-15 12-14 20-25s4-29 16-40c7-6 18-3 25-8 16-11 36-31 50-40 8-5 18-3 25-8 6-4 19-23 22-29 1-2-3-15 2-16 7-2 15 9 20 13 47 47-18 83-37 112-7 11-7 22-22 26-10 3 10-25-6-23-7 1-29 27-72 35-16 3-24 13-42 8Z" class="c0"/><path d=" M4505 2900c34 0 9 39 20 55l10 5c2 5-11 9-15 5v-10l-5-10-5-5c-2-6 4-14 0-20-13-19-10 10-10-15Z" class="c2"/><path d=" M4505 4190c9 0 25-6 20 10-2 5-25 14-25-5Z" class="c0"/><path d=" m4505 4410-5 5Z" class="c2"/><path d=" M4515 620v10l-5 5v-10Z" class="c1"/><path d=" m4515 830-5 5Z" class="c0"/><path d=" m4515 3310-5 5Z" class="c2"/><path d=" m4515 3870-5 5Z" class="c0"/><path d=" M4545 670c38 0 8 5-5 5Z" class="c2"/><path d=" m4545 3290-5 5Z" class="c2"/><path d=" M4557 918c3-17 5-8 16-13 6-3 7-14 15-13 13 1 21 12 34 0 10-10 30-49 41-59 5-4 24-5 12 4-9 6-9 12-15 20-5 7-16 9-22 15-10 10-15 34-30 41-7 4-11 1-18 2-12 2-19 11-32 8Z" class="c2"/><path d=" m4565 550-5 5Z" class="c3"/><path d=" M4565 1890v10l-5 5v-10Z" class="c3"/><path d=" m4565 2750-5 5Z" class="c2"/><path d=" M4567 5112c8-2 15-6 23-7 7-1 44 4 43 13-2 20-83 57-71-1Z" class="c2"/><path d=" M4575 720h10l-5 5h-10Z" class="c2"/><path d=" M4575 870h10l-5 5h-10Z" class="c2"/><path d=" M4585 420c9 18 13 14-5 5Z" class="c2"/><path d=" M4585 660c19 0 28-26 35-30 5-2 8 11 5 15l-10 5c-2 6 14 11 10 15s-34 0-40 0Z" class="c2"/><path d=" M4585 710c24 0 12 3 25-10 12-12 7 1 15-10l5-10h10c14 5-7 10-10 15-10 15-31 20-50 20Z" class="c1"/><path d=" m4595 2900-5 5Z" class="c2"/><path d=" m4595 3200-5 5Z" class="c2"/><path d=" M4605 2730c3 5 8 9 10 15v10l10 5-5 5-5-10c-3-5-12-5-15-10v-10Z" class="c2"/><path d=" M4607 2923c12 0 16 39 21 50 18 35 41 17 54 30 7 7 1 17 10 24 24 18 26-23 33-22 6 1 23 41 50 43 9 1 23-17 28-13 3 2 2 15 2 15 1 10 7 17 8 27 2 17-10 36 27 43 29 5 24-15 35-32 5-7 15-12 20-20 2-2 4-18 12-13 21 14 1 55 10 75 7 15 32-9 45 3 6 7 3 18 8 25 14 22 40 52 43 79 3 17-38-2-33 21 7 30 50 57 33 90-8 17-28 1-31-10-5-15 6-43-5-56-5-6-17 2-22 3-15 3-34-6-47 7-5 5-11 34-21 31-6-1 8-24-12-28-17-3-30 6-43 13-11 6-19-3-30 0-2 1-13 6-15 5-5-1 2-16 1-18-2-12-19-12-25-22-5-9-2-18-5-28-5-18-17-40-26-57-33-59-32-7-50-40-5-7-13-14-17-21-3-7 4-16 3-22-1-16-11-33-13-50-1-12 10-22 2-33-9-12-28-14-39-22-5-4-16-61-16-70Z" class="c2"/><path d=" M4605 3250v10l-5 5v-10Z" class="c2"/><path d=" m4615 510-5 5Z" class="c0"/><path d=" m4615 710-5 5Z" class="c2"/><path d=" M4617 3052c16 5 7 44 8 58 1 11 15 18 15 25 0 16-8 28-3 45 5 18 18 19 33 15 5-1-4 10-3 15 1 18 14 34 23 48 5 8-4 25 2 29 4 3 34-9 28 0-5 7-17 9-25 8-27-2-19-21-30-38-5-8-30-19-30-27 0-4 4-11 3-15-3-15-26-12-28-30s14-35 10-55c-5-30-16-35-8-73Z" class="c2"/><path d=" M4625 898c11-11 52-63 65-63 17 0 3 30 15 33 16 4 40-25 58-13 15 10-36 7-50 18-6 6-15 9-21 15s-20 40-34 32c-22-13 12-32 17-42s-7-12-13-10c-16 7-24 26-39 34Z" class="c1"/><path d=" m4625 2860-5 5Z" class="c2"/><path d=" M4625 3180v10l-5 5v-10Z" class="c0"/><path d=" m4635 660-5 5Z" class="c1"/><path d=" m4635 700-5 5Z" class="c2"/><path d=" M4645 650c3-6 1-14 5-20 3-5 12-5 15-10l5-10 5 5c-3 5-12 5-15 10-4 6-1 14-5 20-3 5-11 6-15 10Z" class="c2"/><path d=" m4645 4100-5 5Z" class="c0"/><path d=" m4665 630-5 5Z" class="c1"/><path d=" M4665 5160c41 0 20 0 35-10 1-1 28-2 25 5-9 17-50 10-65 10Z" class="c2"/><path d=" M4675 2870v10l-5 5v-10Z" class="c2"/><path d=" m4675 3870-5 5Z" class="c2"/><path d=" m4675 4120-5 5Z" class="c0"/><path d=" m4685 880-5 5Z" class="c2"/><path d=" m4685 2950-5 5Z" class="c2"/><path d=" M4685 3120v10l-5 5v-10Z" class="c0"/><path d=" M4685 4930h10l-5 5h-10Z" class="c2"/><path d=" M4695 2038c19-19 34-48 58-61 9-5 52-16 62-17s20 2 30 0c9-2 16-8 25-10 17-3 30-3 47-8 15-5 58 5 61 3 6-3 9-8 14-12 33-22 26-25 63-15 7 2 11 1 17 5 11 10 10 28 16 40 6 11 15 19 20 30 5 9 1 20 4 29 5 16 14 32 18 48 1 4-9-2-12 2l-1 8 25 45c4 2 11-10 11-10 3 3-6 17-6 20-3 9-1 19 6 27 10 9 24 6 34 13 15 10 24 30 40 40 40 27 82 52 116 87 5 5 41 26 37 31-5 8-44-25-50-26-19-6-80-32-95-30-6 0-11 6-17 6-7 1-33-9-40-13-15-10-61-53-73-55-10-2-20 1-30 0-19-2-32-17-50-20-31-6-52-1-83-13l-17-7c-3-1-12-1-10-3 15-15 53 18 77 0 44-35 29-35 56-67 9-10 31-16 32-30 2-20-36-54-52-65-14-10-26 9-40 0-15-10-43-47-58-53-30-12-200 38-203 68-2 15 18 6 25 17 20 30 17 16 30 31 5 7 1 18 10 22 11 5 15-17 26-13 10 2 8 23 15 30 4 3 10 5 14 1 2-2 4-11 6-8 6 5-13 22-15 27-3 7 5 17 2 21-4 6-18-1-22-3-13-5-34-1-43-13-8-10-10-32-22-39-9-5-74 14-61-51Z" class="c2"/><path d=" M4695 4487c13-4 31-16 33-15 7 2 11 15 15 20 8 7 26 5 30 15 5 10 7 57-1 65-13 12-33-19-37-25-15-22-36-31-42-59Z" class="c2"/><path d=" M4707 823c29-12 17 4 35 12 10 4 25 1 36 7 6 2 6 27 2 31-3 4-15 3-15-3 0-7 9-16-2-20-21-9-43 16-56 13-2 0-5-30-5-33Z" class="c2"/><path d=" M4715 2510c0 36 15 9 20 25v10c-13 13-15-14-15-15-13-19-10 10-10-15Z" class="c3"/><path d=" m4715 4310-5 5Z" class="c2"/><path d=" M4715 4360c4 9 19 18 20 20l-5 5c-2-1-11-16-20-20Z" class="c0"/><path d=" M4725 2060c2 4 15 20 10 25-12 12-15-12-15-15Z" class="c0"/><path d=" M4735 2020c27-27 153-67 190-60 10 2 52 51 67 57 11 4 14-4 25-5 15-2 60 48 58 63-1 12-24 19-32 28-15 20-42 75-73 72-9-1-17-8-25-10-24-4-25 0-55-8-14-4-35 3-45-10-14-19 24-28 12-45-5-7-16 3-20 1-12-3-3-23-17-26-10-2-22 17-28 13-4-3-2-10-4-15-4-10-13-10-20-15-7-6-8-16-13-23-8-12-14-1-22-9Z" class="c0"/><path d=" M4735 2510h10l-5 5h-10Z" class="c3"/><path d=" M4745 820v10l-5 5v-10Z" class="c0"/><path d=" m4745 2060-5 5Z" class="c1"/><path d=" M4757 882c14-3 28-9 43-12 17-3 29 11 45 10 11-1 15-11 23-15 9-4 13 7 19 10s15-4 21-3l17 6c7 1 32-21 35-16 4 6-21 27-27 30-8 4-13-3-21-2-5 1-10 4-15 3-13-1-18-18-32-16-9 1-16 7-25 8-15 1-30-8-43-5-12 3-34 18-42 5Z" class="c1"/><path d=" m4755 5090-5 5Z" class="c2"/><path d=" M4757 5163c6-6 33-20 28-31-1-3-33-21-23-27 8-6 19 13 26-5 10-24-3-55 2-80 2-8 9-16 10-25 0-4-10-29-8-30 5-4 26-3 36-10 3-2 21-34 24-32 1 2-10 19-10 20-8 20 14 7 11 15-5 20-19 29-30 45-4 7-9 50-6 57 3 9 13 12 20 3 8-11-7-23-2-31 5-7 19 11 18 16-1 14-26 64-36 72-7 5-17 7-24 13-5 6-27 41-28 47-1 9 6 18 8 27 3 8-1 19 5 26 3 4 15 0 15 4v30c1 8-7 15-8 23s8 35 10 45c0 1 9 27 7 25-10-6-39-90-42-105-5-26 1-50-7-87Z" class="c2"/><path d=" M4765 830c6 0 36-4 40 0 7 7-3 11-5 15-4 6 0 15-5 20h-10c-15-5 4-8 5-10 13-19-16-20-25-20Z" class="c0"/></g></svg>